G04 #@! TF.GenerationSoftware,KiCad,Pcbnew,5.1.5*
G04 #@! TF.CreationDate,2019-12-04T09:49:36-05:00*
G04 #@! TF.ProjectId,obd-teensy-oled,6f62642d-7465-4656-9e73-792d6f6c6564,rev?*
G04 #@! TF.SameCoordinates,Original*
G04 #@! TF.FileFunction,Copper,L2,Bot*
G04 #@! TF.FilePolarity,Positive*
%FSLAX46Y46*%
G04 Gerber Fmt 4.6, Leading zero omitted, Abs format (unit mm)*
G04 Created by KiCad (PCBNEW 5.1.5) date 2019-12-04 09:49:36*
%MOMM*%
%LPD*%
G04 APERTURE LIST*
%ADD10C,10.200000*%
%ADD11R,3.300000X3.500000*%
%ADD12R,1.600000X1.600000*%
%ADD13C,1.600000*%
%ADD14O,1.300000X0.800000*%
%ADD15C,0.100000*%
%ADD16O,0.800000X1.300000*%
%ADD17R,2.413000X5.080000*%
%ADD18R,1.099820X0.998220*%
%ADD19R,0.998220X0.998220*%
%ADD20C,2.100000*%
%ADD21C,3.215640*%
%ADD22C,0.685800*%
%ADD23C,0.304800*%
%ADD24C,0.558800*%
%ADD25C,0.152400*%
%ADD26C,0.254000*%
G04 APERTURE END LIST*
D10*
X185293000Y-95250000D03*
D11*
X185293000Y-103150000D03*
X185293000Y-87350000D03*
D12*
X142748000Y-104267000D03*
D13*
X145288000Y-104267000D03*
X147828000Y-104267000D03*
X150368000Y-104267000D03*
X152908000Y-104267000D03*
X155448000Y-104267000D03*
X157988000Y-104267000D03*
X160528000Y-104267000D03*
X163068000Y-104267000D03*
X165608000Y-104267000D03*
X168148000Y-104267000D03*
X170688000Y-104267000D03*
X173228000Y-104267000D03*
X145288000Y-91567000D03*
X142748000Y-89027000D03*
X145288000Y-89027000D03*
X147828000Y-89027000D03*
X150368000Y-89027000D03*
X152908000Y-89027000D03*
X155448000Y-89027000D03*
X157988000Y-89027000D03*
X160528000Y-89027000D03*
X163068000Y-89027000D03*
X165608000Y-89027000D03*
X168148000Y-89027000D03*
X170688000Y-89027000D03*
X173228000Y-89027000D03*
X175768000Y-104267000D03*
X175768000Y-101727000D03*
X175768000Y-99187000D03*
X175768000Y-89027000D03*
X175768000Y-91567000D03*
X175768000Y-94107000D03*
X175768000Y-96647000D03*
D14*
X171831000Y-92322000D03*
X171831000Y-93572000D03*
X171831000Y-94822000D03*
X171831000Y-96072000D03*
X171831000Y-97322000D03*
X171831000Y-98572000D03*
X171831000Y-99822000D03*
G04 #@! TA.AperFunction,ComponentPad*
D15*
G36*
X172300603Y-100672963D02*
G01*
X172320018Y-100675843D01*
X172339057Y-100680612D01*
X172357537Y-100687224D01*
X172375279Y-100695616D01*
X172392114Y-100705706D01*
X172407879Y-100717398D01*
X172422421Y-100730579D01*
X172435602Y-100745121D01*
X172447294Y-100760886D01*
X172457384Y-100777721D01*
X172465776Y-100795463D01*
X172472388Y-100813943D01*
X172477157Y-100832982D01*
X172480037Y-100852397D01*
X172481000Y-100872000D01*
X172481000Y-101272000D01*
X172480037Y-101291603D01*
X172477157Y-101311018D01*
X172472388Y-101330057D01*
X172465776Y-101348537D01*
X172457384Y-101366279D01*
X172447294Y-101383114D01*
X172435602Y-101398879D01*
X172422421Y-101413421D01*
X172407879Y-101426602D01*
X172392114Y-101438294D01*
X172375279Y-101448384D01*
X172357537Y-101456776D01*
X172339057Y-101463388D01*
X172320018Y-101468157D01*
X172300603Y-101471037D01*
X172281000Y-101472000D01*
X171381000Y-101472000D01*
X171361397Y-101471037D01*
X171341982Y-101468157D01*
X171322943Y-101463388D01*
X171304463Y-101456776D01*
X171286721Y-101448384D01*
X171269886Y-101438294D01*
X171254121Y-101426602D01*
X171239579Y-101413421D01*
X171226398Y-101398879D01*
X171214706Y-101383114D01*
X171204616Y-101366279D01*
X171196224Y-101348537D01*
X171189612Y-101330057D01*
X171184843Y-101311018D01*
X171181963Y-101291603D01*
X171181000Y-101272000D01*
X171181000Y-100872000D01*
X171181963Y-100852397D01*
X171184843Y-100832982D01*
X171189612Y-100813943D01*
X171196224Y-100795463D01*
X171204616Y-100777721D01*
X171214706Y-100760886D01*
X171226398Y-100745121D01*
X171239579Y-100730579D01*
X171254121Y-100717398D01*
X171269886Y-100705706D01*
X171286721Y-100695616D01*
X171304463Y-100687224D01*
X171322943Y-100680612D01*
X171341982Y-100675843D01*
X171361397Y-100672963D01*
X171381000Y-100672000D01*
X172281000Y-100672000D01*
X172300603Y-100672963D01*
G37*
G04 #@! TD.AperFunction*
D16*
X159391000Y-86233000D03*
X160641000Y-86233000D03*
X161891000Y-86233000D03*
X163141000Y-86233000D03*
X164391000Y-86233000D03*
X165641000Y-86233000D03*
X166891000Y-86233000D03*
X168141000Y-86233000D03*
X169391000Y-86233000D03*
X170641000Y-86233000D03*
X171891000Y-86233000D03*
X173141000Y-86233000D03*
X174391000Y-86233000D03*
G04 #@! TA.AperFunction,ComponentPad*
D15*
G36*
X175860603Y-85583963D02*
G01*
X175880018Y-85586843D01*
X175899057Y-85591612D01*
X175917537Y-85598224D01*
X175935279Y-85606616D01*
X175952114Y-85616706D01*
X175967879Y-85628398D01*
X175982421Y-85641579D01*
X175995602Y-85656121D01*
X176007294Y-85671886D01*
X176017384Y-85688721D01*
X176025776Y-85706463D01*
X176032388Y-85724943D01*
X176037157Y-85743982D01*
X176040037Y-85763397D01*
X176041000Y-85783000D01*
X176041000Y-86683000D01*
X176040037Y-86702603D01*
X176037157Y-86722018D01*
X176032388Y-86741057D01*
X176025776Y-86759537D01*
X176017384Y-86777279D01*
X176007294Y-86794114D01*
X175995602Y-86809879D01*
X175982421Y-86824421D01*
X175967879Y-86837602D01*
X175952114Y-86849294D01*
X175935279Y-86859384D01*
X175917537Y-86867776D01*
X175899057Y-86874388D01*
X175880018Y-86879157D01*
X175860603Y-86882037D01*
X175841000Y-86883000D01*
X175441000Y-86883000D01*
X175421397Y-86882037D01*
X175401982Y-86879157D01*
X175382943Y-86874388D01*
X175364463Y-86867776D01*
X175346721Y-86859384D01*
X175329886Y-86849294D01*
X175314121Y-86837602D01*
X175299579Y-86824421D01*
X175286398Y-86809879D01*
X175274706Y-86794114D01*
X175264616Y-86777279D01*
X175256224Y-86759537D01*
X175249612Y-86741057D01*
X175244843Y-86722018D01*
X175241963Y-86702603D01*
X175241000Y-86683000D01*
X175241000Y-85783000D01*
X175241963Y-85763397D01*
X175244843Y-85743982D01*
X175249612Y-85724943D01*
X175256224Y-85706463D01*
X175264616Y-85688721D01*
X175274706Y-85671886D01*
X175286398Y-85656121D01*
X175299579Y-85641579D01*
X175314121Y-85628398D01*
X175329886Y-85616706D01*
X175346721Y-85606616D01*
X175364463Y-85598224D01*
X175382943Y-85591612D01*
X175401982Y-85586843D01*
X175421397Y-85583963D01*
X175441000Y-85583000D01*
X175841000Y-85583000D01*
X175860603Y-85583963D01*
G37*
G04 #@! TD.AperFunction*
D17*
X180911500Y-84963000D03*
X189674500Y-84963000D03*
D18*
X189524640Y-105156000D03*
X191221360Y-105156000D03*
D19*
X189484000Y-103378000D03*
X191236600Y-103378000D03*
D18*
X181950360Y-105791000D03*
X180253640Y-105791000D03*
D20*
X127437000Y-90678000D03*
X118237000Y-90678000D03*
D21*
X132334000Y-92057220D03*
X136286240Y-92057220D03*
X140235940Y-92057220D03*
X148132800Y-92057220D03*
X152082500Y-92057220D03*
X156032200Y-92057220D03*
X159981900Y-92057220D03*
X132334000Y-100457000D03*
X136286240Y-100457000D03*
X140235940Y-100457000D03*
X144185640Y-100457000D03*
X148132800Y-100457000D03*
X152082500Y-100457000D03*
X156032200Y-100457000D03*
X159981900Y-100457000D03*
D22*
X137414000Y-103378000D03*
X115824000Y-103124000D03*
X188849000Y-92456000D03*
X187071000Y-91313000D03*
X117475000Y-101600000D03*
X118491000Y-103124000D03*
X119380000Y-105156000D03*
X118999000Y-101600000D03*
X119761000Y-103759000D03*
X192151000Y-87249000D03*
X192151000Y-84963000D03*
X192151000Y-82931000D03*
X178689000Y-82931000D03*
X178689000Y-84709000D03*
X178689000Y-86995000D03*
X187579000Y-87249000D03*
X183007000Y-87249000D03*
X187325000Y-82931000D03*
X183261000Y-82931000D03*
X121031000Y-104267000D03*
X122047000Y-105410000D03*
X123063000Y-104140000D03*
X178689000Y-89408000D03*
X179578000Y-88646000D03*
X180340000Y-89408000D03*
X141097000Y-86360000D03*
X127000000Y-85852000D03*
X125857000Y-84074000D03*
X193167000Y-96393000D03*
X193167000Y-97663000D03*
X192405000Y-96901000D03*
X181483000Y-104394000D03*
X182626000Y-103632000D03*
X146939000Y-84963000D03*
X115951000Y-85344000D03*
X168910000Y-101854000D03*
X185547000Y-89789000D03*
X187706000Y-89535000D03*
X189103000Y-90678000D03*
X190373000Y-92583000D03*
X130175000Y-95631000D03*
X131064000Y-94615000D03*
X131826000Y-95504000D03*
X132715000Y-94615000D03*
X133350000Y-95504000D03*
X141478000Y-84709000D03*
X141478000Y-94488000D03*
X141986000Y-95377000D03*
X143256000Y-95377000D03*
X126238000Y-97282000D03*
X121795611Y-99945588D03*
X177673000Y-102743000D03*
X177673000Y-103886000D03*
X121793000Y-95631000D03*
X117094000Y-89408000D03*
X193167000Y-103378000D03*
X182880000Y-102235000D03*
X136017000Y-87630000D03*
X142367000Y-84137500D03*
X152908000Y-86868000D03*
X158115000Y-85852000D03*
D23*
X136929067Y-103378000D02*
X133881067Y-106426000D01*
X137414000Y-103378000D02*
X136929067Y-103378000D01*
X133881067Y-106426000D02*
X119126000Y-106426000D01*
X119126000Y-106426000D02*
X115824000Y-103124000D01*
X127000000Y-85852000D02*
X127000000Y-85217000D01*
X127000000Y-85217000D02*
X125857000Y-84074000D01*
D24*
X141820801Y-90258801D02*
X141097000Y-89535000D01*
X144056199Y-90258801D02*
X141820801Y-90258801D01*
X145288000Y-89027000D02*
X144056199Y-90258801D01*
X141097000Y-89535000D02*
X141097000Y-86360000D01*
X185293000Y-95250000D02*
X178308000Y-95250000D01*
X185293000Y-95250000D02*
X185293000Y-95631000D01*
X185293000Y-95631000D02*
X180594000Y-100330000D01*
X185293000Y-95250000D02*
X185547000Y-95250000D01*
X185293000Y-95250000D02*
X185293000Y-95377000D01*
X185293000Y-95377000D02*
X189865000Y-99949000D01*
D23*
X188669930Y-105156000D02*
X188087000Y-104573070D01*
X189524640Y-105156000D02*
X188669930Y-105156000D01*
X188087000Y-104573070D02*
X188087000Y-103124000D01*
X188087000Y-103124000D02*
X188341000Y-102870000D01*
X188341000Y-102870000D02*
X188341000Y-102235000D01*
X188341000Y-102235000D02*
X188087000Y-101981000D01*
X142748000Y-85979000D02*
X142748000Y-89027000D01*
X141478000Y-84709000D02*
X142748000Y-85979000D01*
X122280544Y-99945588D02*
X122283956Y-99949000D01*
X121795611Y-99945588D02*
X122280544Y-99945588D01*
X123571000Y-99949000D02*
X126238000Y-97282000D01*
X122283956Y-99949000D02*
X123571000Y-99949000D01*
D24*
X147828000Y-89027000D02*
X149059801Y-87795199D01*
X159391000Y-86481000D02*
X159391000Y-86233000D01*
X158076801Y-87795199D02*
X159391000Y-86481000D01*
X149059801Y-87795199D02*
X158076801Y-87795199D01*
D23*
X177673000Y-103886000D02*
X177673000Y-105410000D01*
X178054000Y-105791000D02*
X180253640Y-105791000D01*
X177673000Y-105410000D02*
X178054000Y-105791000D01*
D25*
X121793000Y-95631000D02*
X117983000Y-95631000D01*
X117983000Y-95631000D02*
X116586000Y-94234000D01*
X116586000Y-94234000D02*
X116586000Y-89916000D01*
X116586000Y-89916000D02*
X117094000Y-89408000D01*
X193167000Y-103378000D02*
X191236600Y-103378000D01*
D26*
X184656000Y-105791000D02*
X182754270Y-105791000D01*
X182754270Y-105791000D02*
X181950360Y-105791000D01*
X185293000Y-105154000D02*
X184656000Y-105791000D01*
X185293000Y-103150000D02*
X185293000Y-105154000D01*
X184378000Y-102235000D02*
X185293000Y-103150000D01*
X182880000Y-102235000D02*
X184378000Y-102235000D01*
D25*
X136017000Y-87145067D02*
X139088067Y-84074000D01*
X136017000Y-87630000D02*
X136017000Y-87145067D01*
X139088067Y-84074000D02*
X142367000Y-84074000D01*
X152908000Y-86868000D02*
X157734000Y-86868000D01*
X157734000Y-86868000D02*
X158115000Y-86487000D01*
X158115000Y-86487000D02*
X158115000Y-85852000D01*
X189524640Y-103418640D02*
X189484000Y-103378000D01*
X189484000Y-104029510D02*
X189721490Y-104267000D01*
X189484000Y-103378000D02*
X189484000Y-104029510D01*
X189721490Y-104267000D02*
X191008000Y-104267000D01*
X191221360Y-104480360D02*
X191221360Y-105156000D01*
X191008000Y-104267000D02*
X191221360Y-104480360D01*
X168148000Y-86240000D02*
X168141000Y-86233000D01*
X168148000Y-89027000D02*
X168148000Y-86240000D01*
X168783000Y-91567000D02*
X168783000Y-90043000D01*
X171831000Y-92322000D02*
X169538000Y-92322000D01*
X168148000Y-89408000D02*
X168148000Y-89027000D01*
X168783000Y-90043000D02*
X168148000Y-89408000D01*
X169538000Y-92322000D02*
X168783000Y-91567000D01*
D26*
G36*
X179070000Y-84677250D02*
G01*
X179228750Y-84836000D01*
X180784500Y-84836000D01*
X180784500Y-84816000D01*
X181038500Y-84816000D01*
X181038500Y-84836000D01*
X182594250Y-84836000D01*
X182753000Y-84677250D01*
X182755899Y-82550000D01*
X187830101Y-82550000D01*
X187833000Y-84677250D01*
X187991750Y-84836000D01*
X189547500Y-84836000D01*
X189547500Y-84816000D01*
X189801500Y-84816000D01*
X189801500Y-84836000D01*
X191357250Y-84836000D01*
X191516000Y-84677250D01*
X191518899Y-82550000D01*
X193421000Y-82550000D01*
X193421000Y-97790000D01*
X190442818Y-97790000D01*
X190578299Y-97546711D01*
X190924809Y-96471470D01*
X191054892Y-95349288D01*
X190963549Y-94223290D01*
X190654289Y-93136749D01*
X190138999Y-92131419D01*
X190028678Y-91966309D01*
X189344411Y-91378194D01*
X186746427Y-93976178D01*
X186675868Y-93687527D01*
X189164806Y-91198589D01*
X188576691Y-90514322D01*
X187589711Y-89964701D01*
X186514470Y-89618191D01*
X185392288Y-89488108D01*
X184266290Y-89579451D01*
X183179749Y-89888711D01*
X182174419Y-90404001D01*
X182009309Y-90514322D01*
X181421194Y-91198589D01*
X182297605Y-92075000D01*
X181938395Y-92075000D01*
X181241589Y-91378194D01*
X180557322Y-91966309D01*
X180496795Y-92075000D01*
X178308000Y-92075000D01*
X178308000Y-87503000D01*
X179066928Y-87503000D01*
X179079188Y-87627482D01*
X179115498Y-87747180D01*
X179174463Y-87857494D01*
X179253815Y-87954185D01*
X179350506Y-88033537D01*
X179460820Y-88092502D01*
X179580518Y-88128812D01*
X179705000Y-88141072D01*
X180625750Y-88138000D01*
X180784500Y-87979250D01*
X180784500Y-85090000D01*
X181038500Y-85090000D01*
X181038500Y-87979250D01*
X181197250Y-88138000D01*
X182118000Y-88141072D01*
X182242482Y-88128812D01*
X182362180Y-88092502D01*
X182472494Y-88033537D01*
X182569185Y-87954185D01*
X182648537Y-87857494D01*
X182707502Y-87747180D01*
X182743812Y-87627482D01*
X182756072Y-87503000D01*
X182753479Y-85600000D01*
X183260157Y-85600000D01*
X183260157Y-89100000D01*
X183267513Y-89174689D01*
X183289299Y-89246508D01*
X183324678Y-89312696D01*
X183372289Y-89370711D01*
X183430304Y-89418322D01*
X183496492Y-89453701D01*
X183568311Y-89475487D01*
X183643000Y-89482843D01*
X186943000Y-89482843D01*
X187017689Y-89475487D01*
X187089508Y-89453701D01*
X187155696Y-89418322D01*
X187213711Y-89370711D01*
X187261322Y-89312696D01*
X187296701Y-89246508D01*
X187318487Y-89174689D01*
X187325843Y-89100000D01*
X187325843Y-87503000D01*
X187829928Y-87503000D01*
X187842188Y-87627482D01*
X187878498Y-87747180D01*
X187937463Y-87857494D01*
X188016815Y-87954185D01*
X188113506Y-88033537D01*
X188223820Y-88092502D01*
X188343518Y-88128812D01*
X188468000Y-88141072D01*
X189388750Y-88138000D01*
X189547500Y-87979250D01*
X189547500Y-85090000D01*
X189801500Y-85090000D01*
X189801500Y-87979250D01*
X189960250Y-88138000D01*
X190881000Y-88141072D01*
X191005482Y-88128812D01*
X191125180Y-88092502D01*
X191235494Y-88033537D01*
X191332185Y-87954185D01*
X191411537Y-87857494D01*
X191470502Y-87747180D01*
X191506812Y-87627482D01*
X191519072Y-87503000D01*
X191516000Y-85248750D01*
X191357250Y-85090000D01*
X189801500Y-85090000D01*
X189547500Y-85090000D01*
X187991750Y-85090000D01*
X187833000Y-85248750D01*
X187829928Y-87503000D01*
X187325843Y-87503000D01*
X187325843Y-85600000D01*
X187318487Y-85525311D01*
X187296701Y-85453492D01*
X187261322Y-85387304D01*
X187213711Y-85329289D01*
X187155696Y-85281678D01*
X187089508Y-85246299D01*
X187017689Y-85224513D01*
X186943000Y-85217157D01*
X183643000Y-85217157D01*
X183568311Y-85224513D01*
X183496492Y-85246299D01*
X183430304Y-85281678D01*
X183372289Y-85329289D01*
X183324678Y-85387304D01*
X183289299Y-85453492D01*
X183267513Y-85525311D01*
X183260157Y-85600000D01*
X182753479Y-85600000D01*
X182753000Y-85248750D01*
X182594250Y-85090000D01*
X181038500Y-85090000D01*
X180784500Y-85090000D01*
X179228750Y-85090000D01*
X179070000Y-85248750D01*
X179066928Y-87503000D01*
X178308000Y-87503000D01*
X178308000Y-82550000D01*
X179067101Y-82550000D01*
X179070000Y-84677250D01*
G37*
X179070000Y-84677250D02*
X179228750Y-84836000D01*
X180784500Y-84836000D01*
X180784500Y-84816000D01*
X181038500Y-84816000D01*
X181038500Y-84836000D01*
X182594250Y-84836000D01*
X182753000Y-84677250D01*
X182755899Y-82550000D01*
X187830101Y-82550000D01*
X187833000Y-84677250D01*
X187991750Y-84836000D01*
X189547500Y-84836000D01*
X189547500Y-84816000D01*
X189801500Y-84816000D01*
X189801500Y-84836000D01*
X191357250Y-84836000D01*
X191516000Y-84677250D01*
X191518899Y-82550000D01*
X193421000Y-82550000D01*
X193421000Y-97790000D01*
X190442818Y-97790000D01*
X190578299Y-97546711D01*
X190924809Y-96471470D01*
X191054892Y-95349288D01*
X190963549Y-94223290D01*
X190654289Y-93136749D01*
X190138999Y-92131419D01*
X190028678Y-91966309D01*
X189344411Y-91378194D01*
X186746427Y-93976178D01*
X186675868Y-93687527D01*
X189164806Y-91198589D01*
X188576691Y-90514322D01*
X187589711Y-89964701D01*
X186514470Y-89618191D01*
X185392288Y-89488108D01*
X184266290Y-89579451D01*
X183179749Y-89888711D01*
X182174419Y-90404001D01*
X182009309Y-90514322D01*
X181421194Y-91198589D01*
X182297605Y-92075000D01*
X181938395Y-92075000D01*
X181241589Y-91378194D01*
X180557322Y-91966309D01*
X180496795Y-92075000D01*
X178308000Y-92075000D01*
X178308000Y-87503000D01*
X179066928Y-87503000D01*
X179079188Y-87627482D01*
X179115498Y-87747180D01*
X179174463Y-87857494D01*
X179253815Y-87954185D01*
X179350506Y-88033537D01*
X179460820Y-88092502D01*
X179580518Y-88128812D01*
X179705000Y-88141072D01*
X180625750Y-88138000D01*
X180784500Y-87979250D01*
X180784500Y-85090000D01*
X181038500Y-85090000D01*
X181038500Y-87979250D01*
X181197250Y-88138000D01*
X182118000Y-88141072D01*
X182242482Y-88128812D01*
X182362180Y-88092502D01*
X182472494Y-88033537D01*
X182569185Y-87954185D01*
X182648537Y-87857494D01*
X182707502Y-87747180D01*
X182743812Y-87627482D01*
X182756072Y-87503000D01*
X182753479Y-85600000D01*
X183260157Y-85600000D01*
X183260157Y-89100000D01*
X183267513Y-89174689D01*
X183289299Y-89246508D01*
X183324678Y-89312696D01*
X183372289Y-89370711D01*
X183430304Y-89418322D01*
X183496492Y-89453701D01*
X183568311Y-89475487D01*
X183643000Y-89482843D01*
X186943000Y-89482843D01*
X187017689Y-89475487D01*
X187089508Y-89453701D01*
X187155696Y-89418322D01*
X187213711Y-89370711D01*
X187261322Y-89312696D01*
X187296701Y-89246508D01*
X187318487Y-89174689D01*
X187325843Y-89100000D01*
X187325843Y-87503000D01*
X187829928Y-87503000D01*
X187842188Y-87627482D01*
X187878498Y-87747180D01*
X187937463Y-87857494D01*
X188016815Y-87954185D01*
X188113506Y-88033537D01*
X188223820Y-88092502D01*
X188343518Y-88128812D01*
X188468000Y-88141072D01*
X189388750Y-88138000D01*
X189547500Y-87979250D01*
X189547500Y-85090000D01*
X189801500Y-85090000D01*
X189801500Y-87979250D01*
X189960250Y-88138000D01*
X190881000Y-88141072D01*
X191005482Y-88128812D01*
X191125180Y-88092502D01*
X191235494Y-88033537D01*
X191332185Y-87954185D01*
X191411537Y-87857494D01*
X191470502Y-87747180D01*
X191506812Y-87627482D01*
X191519072Y-87503000D01*
X191516000Y-85248750D01*
X191357250Y-85090000D01*
X189801500Y-85090000D01*
X189547500Y-85090000D01*
X187991750Y-85090000D01*
X187833000Y-85248750D01*
X187829928Y-87503000D01*
X187325843Y-87503000D01*
X187325843Y-85600000D01*
X187318487Y-85525311D01*
X187296701Y-85453492D01*
X187261322Y-85387304D01*
X187213711Y-85329289D01*
X187155696Y-85281678D01*
X187089508Y-85246299D01*
X187017689Y-85224513D01*
X186943000Y-85217157D01*
X183643000Y-85217157D01*
X183568311Y-85224513D01*
X183496492Y-85246299D01*
X183430304Y-85281678D01*
X183372289Y-85329289D01*
X183324678Y-85387304D01*
X183289299Y-85453492D01*
X183267513Y-85525311D01*
X183260157Y-85600000D01*
X182753479Y-85600000D01*
X182753000Y-85248750D01*
X182594250Y-85090000D01*
X181038500Y-85090000D01*
X180784500Y-85090000D01*
X179228750Y-85090000D01*
X179070000Y-85248750D01*
X179066928Y-87503000D01*
X178308000Y-87503000D01*
X178308000Y-82550000D01*
X179067101Y-82550000D01*
X179070000Y-84677250D01*
G36*
X178181000Y-99646490D02*
G01*
X178181000Y-104072032D01*
X177284796Y-104669501D01*
X177164938Y-100834033D01*
X177161725Y-100809345D01*
X177153757Y-100785758D01*
X177141341Y-100764179D01*
X177124954Y-100745436D01*
X177112698Y-100735291D01*
X175768000Y-99757329D01*
X175768000Y-99700756D01*
X175877632Y-98494806D01*
X178181000Y-99646490D01*
G37*
X178181000Y-99646490D02*
X178181000Y-104072032D01*
X177284796Y-104669501D01*
X177164938Y-100834033D01*
X177161725Y-100809345D01*
X177153757Y-100785758D01*
X177141341Y-100764179D01*
X177124954Y-100745436D01*
X177112698Y-100735291D01*
X175768000Y-99757329D01*
X175768000Y-99700756D01*
X175877632Y-98494806D01*
X178181000Y-99646490D01*
G36*
X164592000Y-86614000D02*
G01*
X164594440Y-86638776D01*
X164601667Y-86662601D01*
X164617400Y-86690200D01*
X164998400Y-87198200D01*
X165015218Y-87216557D01*
X165035294Y-87231280D01*
X165063507Y-87243644D01*
X166307111Y-87616725D01*
X167167126Y-88369239D01*
X167101412Y-88467587D01*
X167012386Y-88682515D01*
X166967000Y-88910682D01*
X166967000Y-89143318D01*
X167012386Y-89371485D01*
X167101412Y-89586413D01*
X167203434Y-89739099D01*
X165950507Y-91427827D01*
X165937703Y-91449179D01*
X165930661Y-91467665D01*
X165613161Y-92547165D01*
X165608000Y-92583000D01*
X165608000Y-93472000D01*
X165610440Y-93496776D01*
X165617667Y-93520601D01*
X165629403Y-93542557D01*
X165645197Y-93561803D01*
X165664443Y-93577597D01*
X165686399Y-93589333D01*
X165716291Y-93597614D01*
X171660312Y-94482894D01*
X172212000Y-94813907D01*
X172212000Y-96180016D01*
X171700027Y-96384806D01*
X170220161Y-95891517D01*
X170195884Y-95885997D01*
X170180000Y-95885000D01*
X129353185Y-95885000D01*
X130131060Y-94107000D01*
X141351000Y-94107000D01*
X141375776Y-94104560D01*
X141402580Y-94096054D01*
X142520952Y-93599000D01*
X143753489Y-93599000D01*
X146791121Y-94105272D01*
X146812000Y-94107000D01*
X161544000Y-94107000D01*
X161568776Y-94104560D01*
X161592601Y-94097333D01*
X161614557Y-94085597D01*
X161633803Y-94069803D01*
X161651696Y-94047310D01*
X162286696Y-93031310D01*
X162297758Y-93009006D01*
X162304256Y-92984973D01*
X162306000Y-92964000D01*
X162306000Y-91186000D01*
X162303560Y-91161224D01*
X162296333Y-91137399D01*
X162283042Y-91113170D01*
X161417000Y-89875967D01*
X161417000Y-89808185D01*
X161445342Y-89779843D01*
X161574588Y-89586413D01*
X161663614Y-89371485D01*
X161709000Y-89143318D01*
X161709000Y-88910682D01*
X161887000Y-88910682D01*
X161887000Y-89143318D01*
X161932386Y-89371485D01*
X162021412Y-89586413D01*
X162150658Y-89779843D01*
X162315157Y-89944342D01*
X162508587Y-90073588D01*
X162723515Y-90162614D01*
X162951682Y-90208000D01*
X163184318Y-90208000D01*
X163412485Y-90162614D01*
X163627413Y-90073588D01*
X163820843Y-89944342D01*
X163985342Y-89779843D01*
X164114588Y-89586413D01*
X164203614Y-89371485D01*
X164249000Y-89143318D01*
X164249000Y-88910682D01*
X164427000Y-88910682D01*
X164427000Y-89143318D01*
X164472386Y-89371485D01*
X164561412Y-89586413D01*
X164690658Y-89779843D01*
X164855157Y-89944342D01*
X165048587Y-90073588D01*
X165263515Y-90162614D01*
X165491682Y-90208000D01*
X165724318Y-90208000D01*
X165952485Y-90162614D01*
X166167413Y-90073588D01*
X166360843Y-89944342D01*
X166525342Y-89779843D01*
X166654588Y-89586413D01*
X166743614Y-89371485D01*
X166789000Y-89143318D01*
X166789000Y-88910682D01*
X166743614Y-88682515D01*
X166654588Y-88467587D01*
X166525342Y-88274157D01*
X166360843Y-88109658D01*
X166167413Y-87980412D01*
X165952485Y-87891386D01*
X165724318Y-87846000D01*
X165491682Y-87846000D01*
X165263515Y-87891386D01*
X165048587Y-87980412D01*
X164855157Y-88109658D01*
X164690658Y-88274157D01*
X164561412Y-88467587D01*
X164472386Y-88682515D01*
X164427000Y-88910682D01*
X164249000Y-88910682D01*
X164203614Y-88682515D01*
X164114588Y-88467587D01*
X163985342Y-88274157D01*
X163820843Y-88109658D01*
X163627413Y-87980412D01*
X163412485Y-87891386D01*
X163184318Y-87846000D01*
X162951682Y-87846000D01*
X162723515Y-87891386D01*
X162508587Y-87980412D01*
X162315157Y-88109658D01*
X162150658Y-88274157D01*
X162021412Y-88467587D01*
X161932386Y-88682515D01*
X161887000Y-88910682D01*
X161709000Y-88910682D01*
X161663614Y-88682515D01*
X161574588Y-88467587D01*
X161446786Y-88276319D01*
X162783950Y-86696035D01*
X162798091Y-86675544D01*
X162807963Y-86652689D01*
X162812724Y-86631961D01*
X162924147Y-85852000D01*
X164592000Y-85852000D01*
X164592000Y-86614000D01*
G37*
X164592000Y-86614000D02*
X164594440Y-86638776D01*
X164601667Y-86662601D01*
X164617400Y-86690200D01*
X164998400Y-87198200D01*
X165015218Y-87216557D01*
X165035294Y-87231280D01*
X165063507Y-87243644D01*
X166307111Y-87616725D01*
X167167126Y-88369239D01*
X167101412Y-88467587D01*
X167012386Y-88682515D01*
X166967000Y-88910682D01*
X166967000Y-89143318D01*
X167012386Y-89371485D01*
X167101412Y-89586413D01*
X167203434Y-89739099D01*
X165950507Y-91427827D01*
X165937703Y-91449179D01*
X165930661Y-91467665D01*
X165613161Y-92547165D01*
X165608000Y-92583000D01*
X165608000Y-93472000D01*
X165610440Y-93496776D01*
X165617667Y-93520601D01*
X165629403Y-93542557D01*
X165645197Y-93561803D01*
X165664443Y-93577597D01*
X165686399Y-93589333D01*
X165716291Y-93597614D01*
X171660312Y-94482894D01*
X172212000Y-94813907D01*
X172212000Y-96180016D01*
X171700027Y-96384806D01*
X170220161Y-95891517D01*
X170195884Y-95885997D01*
X170180000Y-95885000D01*
X129353185Y-95885000D01*
X130131060Y-94107000D01*
X141351000Y-94107000D01*
X141375776Y-94104560D01*
X141402580Y-94096054D01*
X142520952Y-93599000D01*
X143753489Y-93599000D01*
X146791121Y-94105272D01*
X146812000Y-94107000D01*
X161544000Y-94107000D01*
X161568776Y-94104560D01*
X161592601Y-94097333D01*
X161614557Y-94085597D01*
X161633803Y-94069803D01*
X161651696Y-94047310D01*
X162286696Y-93031310D01*
X162297758Y-93009006D01*
X162304256Y-92984973D01*
X162306000Y-92964000D01*
X162306000Y-91186000D01*
X162303560Y-91161224D01*
X162296333Y-91137399D01*
X162283042Y-91113170D01*
X161417000Y-89875967D01*
X161417000Y-89808185D01*
X161445342Y-89779843D01*
X161574588Y-89586413D01*
X161663614Y-89371485D01*
X161709000Y-89143318D01*
X161709000Y-88910682D01*
X161887000Y-88910682D01*
X161887000Y-89143318D01*
X161932386Y-89371485D01*
X162021412Y-89586413D01*
X162150658Y-89779843D01*
X162315157Y-89944342D01*
X162508587Y-90073588D01*
X162723515Y-90162614D01*
X162951682Y-90208000D01*
X163184318Y-90208000D01*
X163412485Y-90162614D01*
X163627413Y-90073588D01*
X163820843Y-89944342D01*
X163985342Y-89779843D01*
X164114588Y-89586413D01*
X164203614Y-89371485D01*
X164249000Y-89143318D01*
X164249000Y-88910682D01*
X164427000Y-88910682D01*
X164427000Y-89143318D01*
X164472386Y-89371485D01*
X164561412Y-89586413D01*
X164690658Y-89779843D01*
X164855157Y-89944342D01*
X165048587Y-90073588D01*
X165263515Y-90162614D01*
X165491682Y-90208000D01*
X165724318Y-90208000D01*
X165952485Y-90162614D01*
X166167413Y-90073588D01*
X166360843Y-89944342D01*
X166525342Y-89779843D01*
X166654588Y-89586413D01*
X166743614Y-89371485D01*
X166789000Y-89143318D01*
X166789000Y-88910682D01*
X166743614Y-88682515D01*
X166654588Y-88467587D01*
X166525342Y-88274157D01*
X166360843Y-88109658D01*
X166167413Y-87980412D01*
X165952485Y-87891386D01*
X165724318Y-87846000D01*
X165491682Y-87846000D01*
X165263515Y-87891386D01*
X165048587Y-87980412D01*
X164855157Y-88109658D01*
X164690658Y-88274157D01*
X164561412Y-88467587D01*
X164472386Y-88682515D01*
X164427000Y-88910682D01*
X164249000Y-88910682D01*
X164203614Y-88682515D01*
X164114588Y-88467587D01*
X163985342Y-88274157D01*
X163820843Y-88109658D01*
X163627413Y-87980412D01*
X163412485Y-87891386D01*
X163184318Y-87846000D01*
X162951682Y-87846000D01*
X162723515Y-87891386D01*
X162508587Y-87980412D01*
X162315157Y-88109658D01*
X162150658Y-88274157D01*
X162021412Y-88467587D01*
X161932386Y-88682515D01*
X161887000Y-88910682D01*
X161709000Y-88910682D01*
X161663614Y-88682515D01*
X161574588Y-88467587D01*
X161446786Y-88276319D01*
X162783950Y-86696035D01*
X162798091Y-86675544D01*
X162807963Y-86652689D01*
X162812724Y-86631961D01*
X162924147Y-85852000D01*
X164592000Y-85852000D01*
X164592000Y-86614000D01*
G36*
X178562000Y-87249000D02*
G01*
X174117000Y-87249000D01*
X174117000Y-85979000D01*
X174114560Y-85954224D01*
X174107333Y-85930399D01*
X174095597Y-85908443D01*
X174087564Y-85897697D01*
X173452564Y-85135697D01*
X173434828Y-85118225D01*
X173414024Y-85104549D01*
X173390952Y-85095195D01*
X173355000Y-85090000D01*
X158496000Y-85090000D01*
X158471224Y-85092440D01*
X158447399Y-85099667D01*
X158425443Y-85111403D01*
X158406197Y-85127197D01*
X158390403Y-85146443D01*
X158378667Y-85168399D01*
X158376168Y-85176636D01*
X158326154Y-85155919D01*
X158186298Y-85128100D01*
X158043702Y-85128100D01*
X157903846Y-85155919D01*
X157772105Y-85210488D01*
X157653540Y-85289710D01*
X157552710Y-85390540D01*
X157473488Y-85509105D01*
X157418919Y-85640846D01*
X157391100Y-85780702D01*
X157391100Y-85923298D01*
X157418919Y-86063154D01*
X157473488Y-86194895D01*
X157552710Y-86313460D01*
X157597336Y-86358086D01*
X157544623Y-86410800D01*
X153473136Y-86410800D01*
X153470290Y-86406540D01*
X153369460Y-86305710D01*
X153250895Y-86226488D01*
X153119154Y-86171919D01*
X152979298Y-86144100D01*
X152836702Y-86144100D01*
X152696846Y-86171919D01*
X152565105Y-86226488D01*
X152446540Y-86305710D01*
X152345710Y-86406540D01*
X152266488Y-86525105D01*
X152211919Y-86656846D01*
X152184100Y-86796702D01*
X152184100Y-86939298D01*
X152211919Y-87079154D01*
X152234968Y-87134799D01*
X149092240Y-87134799D01*
X149059801Y-87131604D01*
X149027362Y-87134799D01*
X148930340Y-87144355D01*
X148805854Y-87182117D01*
X148691127Y-87243440D01*
X148658137Y-87270514D01*
X146652170Y-87249007D01*
X146627368Y-87251182D01*
X146603468Y-87258153D01*
X146581387Y-87269653D01*
X146561973Y-87285240D01*
X146540802Y-87312535D01*
X146320994Y-87693535D01*
X146308475Y-87723584D01*
X145937991Y-89082024D01*
X145282026Y-89628662D01*
X144526000Y-89088644D01*
X144526000Y-87757000D01*
X144523560Y-87732224D01*
X144516917Y-87709833D01*
X144364517Y-87328833D01*
X144353049Y-87306735D01*
X144337491Y-87287299D01*
X144318440Y-87271271D01*
X144296628Y-87259269D01*
X144272893Y-87251752D01*
X144246600Y-87249000D01*
X143383000Y-87249000D01*
X143358224Y-87251440D01*
X143334399Y-87258667D01*
X143306154Y-87274887D01*
X143281400Y-87293700D01*
X143281400Y-86005186D01*
X143283979Y-85978999D01*
X143281400Y-85952812D01*
X143281400Y-85952805D01*
X143273681Y-85874435D01*
X143243181Y-85773889D01*
X143193651Y-85681225D01*
X143126995Y-85600005D01*
X143106651Y-85583309D01*
X142384741Y-84861400D01*
X142438298Y-84861400D01*
X142578154Y-84833581D01*
X142709895Y-84779012D01*
X142828460Y-84699790D01*
X142929290Y-84598960D01*
X143008512Y-84480395D01*
X143063081Y-84348654D01*
X143090900Y-84208798D01*
X143090900Y-84066202D01*
X143063081Y-83926346D01*
X143008512Y-83794605D01*
X142929290Y-83676040D01*
X142828460Y-83575210D01*
X142709895Y-83495988D01*
X142578154Y-83441419D01*
X142438298Y-83413600D01*
X142295702Y-83413600D01*
X142155846Y-83441419D01*
X142024105Y-83495988D01*
X141905540Y-83575210D01*
X141863950Y-83616800D01*
X139110517Y-83616800D01*
X139088067Y-83614589D01*
X139065617Y-83616800D01*
X139065607Y-83616800D01*
X138998440Y-83623415D01*
X138932316Y-83643474D01*
X138912257Y-83649559D01*
X138832831Y-83692013D01*
X138780659Y-83734829D01*
X138780653Y-83734835D01*
X138763214Y-83749147D01*
X138748902Y-83766586D01*
X135709593Y-86805897D01*
X135692148Y-86820214D01*
X135677831Y-86837659D01*
X135677830Y-86837660D01*
X135635013Y-86889832D01*
X135616197Y-86925036D01*
X135592560Y-86969258D01*
X135569945Y-87043809D01*
X135566416Y-87055441D01*
X135565889Y-87060795D01*
X135555540Y-87067710D01*
X135454710Y-87168540D01*
X135375488Y-87287105D01*
X135320919Y-87418846D01*
X135293100Y-87558702D01*
X135293100Y-87701298D01*
X135320919Y-87841154D01*
X135375488Y-87972895D01*
X135454710Y-88091460D01*
X135555540Y-88192290D01*
X135674105Y-88271512D01*
X135805846Y-88326081D01*
X135945702Y-88353900D01*
X136088298Y-88353900D01*
X136228154Y-88326081D01*
X136359895Y-88271512D01*
X136478460Y-88192290D01*
X136579290Y-88091460D01*
X136658512Y-87972895D01*
X136713081Y-87841154D01*
X136740900Y-87701298D01*
X136740900Y-87558702D01*
X136713081Y-87418846D01*
X136658512Y-87287105D01*
X136603649Y-87204996D01*
X139277446Y-84531200D01*
X140775284Y-84531200D01*
X140754100Y-84637702D01*
X140754100Y-84780298D01*
X140781919Y-84920154D01*
X140836488Y-85051895D01*
X140915710Y-85170460D01*
X141016540Y-85271290D01*
X141135105Y-85350512D01*
X141266846Y-85405081D01*
X141406702Y-85432900D01*
X141447559Y-85432900D01*
X142214600Y-86199942D01*
X142214601Y-87969637D01*
X142188587Y-87980412D01*
X141995157Y-88109658D01*
X141830658Y-88274157D01*
X141701412Y-88467587D01*
X141685148Y-88506852D01*
X140165216Y-89662000D01*
X134683500Y-89662000D01*
X134674610Y-89662312D01*
X131055110Y-89916312D01*
X131030565Y-89920480D01*
X131007305Y-89929357D01*
X130986224Y-89942602D01*
X130967050Y-89960965D01*
X128871550Y-92437465D01*
X128857409Y-92457956D01*
X128847537Y-92480811D01*
X128841546Y-92516069D01*
X128743722Y-96135569D01*
X128745492Y-96160402D01*
X128752073Y-96184413D01*
X128763212Y-96206679D01*
X128778480Y-96226344D01*
X128797291Y-96242652D01*
X128818923Y-96254977D01*
X128842543Y-96262845D01*
X128870676Y-96266000D01*
X129822359Y-96266000D01*
X129832105Y-96272512D01*
X129963846Y-96327081D01*
X130103702Y-96354900D01*
X130246298Y-96354900D01*
X130386154Y-96327081D01*
X130517895Y-96272512D01*
X130527641Y-96266000D01*
X165441711Y-96266000D01*
X167822285Y-97894814D01*
X167823245Y-97895465D01*
X170331495Y-99578215D01*
X170353430Y-99589992D01*
X170377241Y-99597263D01*
X170404204Y-99599735D01*
X172467954Y-99567985D01*
X172492690Y-99565164D01*
X172516400Y-99557571D01*
X172538173Y-99545499D01*
X172555803Y-99530803D01*
X173063803Y-99022803D01*
X173079597Y-99003557D01*
X173091333Y-98981601D01*
X173098560Y-98957776D01*
X173101000Y-98933000D01*
X173101000Y-97805634D01*
X173457824Y-96378338D01*
X175651697Y-96031937D01*
X175652810Y-96038811D01*
X175661509Y-96062138D01*
X175674592Y-96083320D01*
X175691556Y-96101542D01*
X175711749Y-96116105D01*
X175734395Y-96126449D01*
X175758624Y-96132176D01*
X175783504Y-96133066D01*
X175808080Y-96129085D01*
X175831407Y-96120386D01*
X175851782Y-96107913D01*
X176860200Y-95351600D01*
X176878557Y-95334782D01*
X176893280Y-95314706D01*
X176903804Y-95292143D01*
X176909724Y-95267961D01*
X176911000Y-95250000D01*
X176911000Y-94414354D01*
X176949000Y-94223318D01*
X176949000Y-93990682D01*
X176911000Y-93799646D01*
X176911000Y-91874354D01*
X176949000Y-91683318D01*
X176949000Y-91450682D01*
X176911000Y-91259646D01*
X176911000Y-90225021D01*
X178866222Y-88392000D01*
X180841491Y-88392000D01*
X180721950Y-90782815D01*
X179202616Y-95720651D01*
X179197662Y-95745050D01*
X179197563Y-95769946D01*
X179202323Y-95794383D01*
X179208256Y-95810272D01*
X180986256Y-99747272D01*
X180998678Y-99768848D01*
X181015070Y-99787586D01*
X181034803Y-99802766D01*
X181049982Y-99810858D01*
X183736739Y-101017157D01*
X183643000Y-101017157D01*
X183568311Y-101024513D01*
X183496492Y-101046299D01*
X183430304Y-101081678D01*
X183372289Y-101129289D01*
X183324678Y-101187304D01*
X183289299Y-101253492D01*
X183267513Y-101325311D01*
X183260157Y-101400000D01*
X183260157Y-101618385D01*
X183222895Y-101593488D01*
X183091154Y-101538919D01*
X182951298Y-101511100D01*
X182808702Y-101511100D01*
X182668846Y-101538919D01*
X182537105Y-101593488D01*
X182418540Y-101672710D01*
X182317710Y-101773540D01*
X182238488Y-101892105D01*
X182183919Y-102023846D01*
X182156100Y-102163702D01*
X182156100Y-102306298D01*
X182183919Y-102446154D01*
X182238488Y-102577895D01*
X182317710Y-102696460D01*
X182418540Y-102797290D01*
X182537105Y-102876512D01*
X182668846Y-102931081D01*
X182808702Y-102958900D01*
X182951298Y-102958900D01*
X183091154Y-102931081D01*
X183222895Y-102876512D01*
X183260157Y-102851615D01*
X183260157Y-104900000D01*
X183260354Y-104902000D01*
X178691919Y-104902000D01*
X178815967Y-99443886D01*
X178814091Y-99419060D01*
X178807407Y-99395078D01*
X178796173Y-99372860D01*
X178780820Y-99353261D01*
X178758376Y-99334623D01*
X175837376Y-97429623D01*
X175815290Y-97418133D01*
X175791387Y-97411172D01*
X175766584Y-97409008D01*
X175741837Y-97411724D01*
X175718094Y-97419216D01*
X175691800Y-97434400D01*
X174675800Y-98196400D01*
X174657443Y-98213218D01*
X174642720Y-98233294D01*
X174632196Y-98255857D01*
X174626276Y-98280039D01*
X174625000Y-98298000D01*
X174625000Y-98879646D01*
X174587000Y-99070682D01*
X174587000Y-99303318D01*
X174625000Y-99494354D01*
X174625000Y-100753044D01*
X174136386Y-102157808D01*
X173057425Y-102997000D01*
X169329452Y-102997000D01*
X162122447Y-98192330D01*
X162100478Y-98180617D01*
X162076646Y-98173414D01*
X162051500Y-98171001D01*
X145922500Y-98234501D01*
X145897733Y-98237039D01*
X145873938Y-98244360D01*
X145852027Y-98256182D01*
X145832845Y-98272052D01*
X145817126Y-98291359D01*
X145805477Y-98313362D01*
X145798344Y-98337214D01*
X145796000Y-98361500D01*
X145796000Y-100543036D01*
X143533935Y-103684793D01*
X143532958Y-103686170D01*
X142748000Y-104807539D01*
X141994529Y-103731151D01*
X142618331Y-100736902D01*
X142620995Y-100712149D01*
X142618779Y-100687351D01*
X142613760Y-100668732D01*
X141851760Y-98509732D01*
X141841213Y-98487180D01*
X141826468Y-98467119D01*
X141808094Y-98450320D01*
X141786795Y-98437429D01*
X141763390Y-98428940D01*
X141732000Y-98425000D01*
X130810000Y-98425000D01*
X130785224Y-98427440D01*
X130761399Y-98434667D01*
X130739443Y-98446403D01*
X130716316Y-98466255D01*
X123919322Y-105892600D01*
X119346942Y-105892600D01*
X117424907Y-103970566D01*
X116502804Y-102871135D01*
X116465512Y-102781105D01*
X116386290Y-102662540D01*
X116285460Y-102561710D01*
X116189522Y-102497607D01*
X115824000Y-102061792D01*
X115824000Y-99874290D01*
X121071711Y-99874290D01*
X121071711Y-100016886D01*
X121099530Y-100156742D01*
X121154099Y-100288483D01*
X121233321Y-100407048D01*
X121334151Y-100507878D01*
X121452716Y-100587100D01*
X121584457Y-100641669D01*
X121724313Y-100669488D01*
X121866909Y-100669488D01*
X122006765Y-100641669D01*
X122138506Y-100587100D01*
X122257071Y-100507878D01*
X122280327Y-100484622D01*
X122283955Y-100484979D01*
X122310142Y-100482400D01*
X123544813Y-100482400D01*
X123571000Y-100484979D01*
X123597187Y-100482400D01*
X123597195Y-100482400D01*
X123675565Y-100474681D01*
X123776111Y-100444181D01*
X123868775Y-100394651D01*
X123949995Y-100327995D01*
X123966696Y-100307645D01*
X126268441Y-98005900D01*
X126309298Y-98005900D01*
X126449154Y-97978081D01*
X126580895Y-97923512D01*
X126699460Y-97844290D01*
X126800290Y-97743460D01*
X126879512Y-97624895D01*
X126934081Y-97493154D01*
X126961900Y-97353298D01*
X126961900Y-97210702D01*
X126934081Y-97070846D01*
X126879512Y-96939105D01*
X126800290Y-96820540D01*
X126699460Y-96719710D01*
X126580895Y-96640488D01*
X126449154Y-96585919D01*
X126309298Y-96558100D01*
X126166702Y-96558100D01*
X126026846Y-96585919D01*
X125895105Y-96640488D01*
X125776540Y-96719710D01*
X125675710Y-96820540D01*
X125596488Y-96939105D01*
X125541919Y-97070846D01*
X125514100Y-97210702D01*
X125514100Y-97251559D01*
X123350059Y-99415600D01*
X122341381Y-99415600D01*
X122306739Y-99412188D01*
X122306731Y-99412188D01*
X122283692Y-99409919D01*
X122257071Y-99383298D01*
X122138506Y-99304076D01*
X122006765Y-99249507D01*
X121866909Y-99221688D01*
X121724313Y-99221688D01*
X121584457Y-99249507D01*
X121452716Y-99304076D01*
X121334151Y-99383298D01*
X121233321Y-99484128D01*
X121154099Y-99602693D01*
X121099530Y-99734434D01*
X121071711Y-99874290D01*
X115824000Y-99874290D01*
X115824000Y-89916000D01*
X116126589Y-89916000D01*
X116128801Y-89938460D01*
X116128800Y-94211550D01*
X116126589Y-94234000D01*
X116128800Y-94256450D01*
X116128800Y-94256459D01*
X116135415Y-94323626D01*
X116161559Y-94409808D01*
X116204013Y-94489235D01*
X116261147Y-94558853D01*
X116278597Y-94573174D01*
X117643830Y-95938408D01*
X117658147Y-95955853D01*
X117675592Y-95970170D01*
X117727763Y-96012987D01*
X117770217Y-96035678D01*
X117807191Y-96055441D01*
X117893373Y-96081585D01*
X117960540Y-96088200D01*
X117960549Y-96088200D01*
X117982999Y-96090411D01*
X118005449Y-96088200D01*
X121227864Y-96088200D01*
X121230710Y-96092460D01*
X121331540Y-96193290D01*
X121450105Y-96272512D01*
X121581846Y-96327081D01*
X121721702Y-96354900D01*
X121864298Y-96354900D01*
X122004154Y-96327081D01*
X122135895Y-96272512D01*
X122254460Y-96193290D01*
X122355290Y-96092460D01*
X122434512Y-95973895D01*
X122489081Y-95842154D01*
X122516900Y-95702298D01*
X122516900Y-95559702D01*
X122489081Y-95419846D01*
X122434512Y-95288105D01*
X122355290Y-95169540D01*
X122254460Y-95068710D01*
X122135895Y-94989488D01*
X122004154Y-94934919D01*
X121864298Y-94907100D01*
X121721702Y-94907100D01*
X121581846Y-94934919D01*
X121450105Y-94989488D01*
X121331540Y-95068710D01*
X121230710Y-95169540D01*
X121227864Y-95173800D01*
X118172378Y-95173800D01*
X117043200Y-94044623D01*
X117043200Y-91467084D01*
X117125470Y-91590209D01*
X117324791Y-91789530D01*
X117559167Y-91946136D01*
X117819593Y-92054007D01*
X118096059Y-92109000D01*
X118377941Y-92109000D01*
X118654407Y-92054007D01*
X118914833Y-91946136D01*
X119149209Y-91789530D01*
X119348530Y-91590209D01*
X119505136Y-91355833D01*
X119613007Y-91095407D01*
X119668000Y-90818941D01*
X119668000Y-90537059D01*
X126006000Y-90537059D01*
X126006000Y-90818941D01*
X126060993Y-91095407D01*
X126168864Y-91355833D01*
X126325470Y-91590209D01*
X126524791Y-91789530D01*
X126759167Y-91946136D01*
X127019593Y-92054007D01*
X127296059Y-92109000D01*
X127577941Y-92109000D01*
X127854407Y-92054007D01*
X128114833Y-91946136D01*
X128349209Y-91789530D01*
X128548530Y-91590209D01*
X128705136Y-91355833D01*
X128813007Y-91095407D01*
X128868000Y-90818941D01*
X128868000Y-90537059D01*
X128813007Y-90260593D01*
X128705136Y-90000167D01*
X128548530Y-89765791D01*
X128349209Y-89566470D01*
X128114833Y-89409864D01*
X127854407Y-89301993D01*
X127577941Y-89247000D01*
X127296059Y-89247000D01*
X127019593Y-89301993D01*
X126759167Y-89409864D01*
X126524791Y-89566470D01*
X126325470Y-89765791D01*
X126168864Y-90000167D01*
X126060993Y-90260593D01*
X126006000Y-90537059D01*
X119668000Y-90537059D01*
X119613007Y-90260593D01*
X119505136Y-90000167D01*
X119348530Y-89765791D01*
X119149209Y-89566470D01*
X118914833Y-89409864D01*
X118654407Y-89301993D01*
X118377941Y-89247000D01*
X118096059Y-89247000D01*
X117819593Y-89301993D01*
X117811650Y-89305283D01*
X117790081Y-89196846D01*
X117735512Y-89065105D01*
X117656290Y-88946540D01*
X117555460Y-88845710D01*
X117436895Y-88766488D01*
X117305154Y-88711919D01*
X117165298Y-88684100D01*
X117022702Y-88684100D01*
X116882846Y-88711919D01*
X116751105Y-88766488D01*
X116632540Y-88845710D01*
X116531710Y-88946540D01*
X116452488Y-89065105D01*
X116397919Y-89196846D01*
X116370100Y-89336702D01*
X116370100Y-89479298D01*
X116371100Y-89484323D01*
X116278592Y-89576831D01*
X116261148Y-89591147D01*
X116246831Y-89608592D01*
X116246830Y-89608593D01*
X116204013Y-89660765D01*
X116165482Y-89732853D01*
X116161560Y-89740191D01*
X116147129Y-89787764D01*
X116135416Y-89826374D01*
X116126589Y-89916000D01*
X115824000Y-89916000D01*
X115824000Y-82550000D01*
X178562000Y-82550000D01*
X178562000Y-87249000D01*
G37*
X178562000Y-87249000D02*
X174117000Y-87249000D01*
X174117000Y-85979000D01*
X174114560Y-85954224D01*
X174107333Y-85930399D01*
X174095597Y-85908443D01*
X174087564Y-85897697D01*
X173452564Y-85135697D01*
X173434828Y-85118225D01*
X173414024Y-85104549D01*
X173390952Y-85095195D01*
X173355000Y-85090000D01*
X158496000Y-85090000D01*
X158471224Y-85092440D01*
X158447399Y-85099667D01*
X158425443Y-85111403D01*
X158406197Y-85127197D01*
X158390403Y-85146443D01*
X158378667Y-85168399D01*
X158376168Y-85176636D01*
X158326154Y-85155919D01*
X158186298Y-85128100D01*
X158043702Y-85128100D01*
X157903846Y-85155919D01*
X157772105Y-85210488D01*
X157653540Y-85289710D01*
X157552710Y-85390540D01*
X157473488Y-85509105D01*
X157418919Y-85640846D01*
X157391100Y-85780702D01*
X157391100Y-85923298D01*
X157418919Y-86063154D01*
X157473488Y-86194895D01*
X157552710Y-86313460D01*
X157597336Y-86358086D01*
X157544623Y-86410800D01*
X153473136Y-86410800D01*
X153470290Y-86406540D01*
X153369460Y-86305710D01*
X153250895Y-86226488D01*
X153119154Y-86171919D01*
X152979298Y-86144100D01*
X152836702Y-86144100D01*
X152696846Y-86171919D01*
X152565105Y-86226488D01*
X152446540Y-86305710D01*
X152345710Y-86406540D01*
X152266488Y-86525105D01*
X152211919Y-86656846D01*
X152184100Y-86796702D01*
X152184100Y-86939298D01*
X152211919Y-87079154D01*
X152234968Y-87134799D01*
X149092240Y-87134799D01*
X149059801Y-87131604D01*
X149027362Y-87134799D01*
X148930340Y-87144355D01*
X148805854Y-87182117D01*
X148691127Y-87243440D01*
X148658137Y-87270514D01*
X146652170Y-87249007D01*
X146627368Y-87251182D01*
X146603468Y-87258153D01*
X146581387Y-87269653D01*
X146561973Y-87285240D01*
X146540802Y-87312535D01*
X146320994Y-87693535D01*
X146308475Y-87723584D01*
X145937991Y-89082024D01*
X145282026Y-89628662D01*
X144526000Y-89088644D01*
X144526000Y-87757000D01*
X144523560Y-87732224D01*
X144516917Y-87709833D01*
X144364517Y-87328833D01*
X144353049Y-87306735D01*
X144337491Y-87287299D01*
X144318440Y-87271271D01*
X144296628Y-87259269D01*
X144272893Y-87251752D01*
X144246600Y-87249000D01*
X143383000Y-87249000D01*
X143358224Y-87251440D01*
X143334399Y-87258667D01*
X143306154Y-87274887D01*
X143281400Y-87293700D01*
X143281400Y-86005186D01*
X143283979Y-85978999D01*
X143281400Y-85952812D01*
X143281400Y-85952805D01*
X143273681Y-85874435D01*
X143243181Y-85773889D01*
X143193651Y-85681225D01*
X143126995Y-85600005D01*
X143106651Y-85583309D01*
X142384741Y-84861400D01*
X142438298Y-84861400D01*
X142578154Y-84833581D01*
X142709895Y-84779012D01*
X142828460Y-84699790D01*
X142929290Y-84598960D01*
X143008512Y-84480395D01*
X143063081Y-84348654D01*
X143090900Y-84208798D01*
X143090900Y-84066202D01*
X143063081Y-83926346D01*
X143008512Y-83794605D01*
X142929290Y-83676040D01*
X142828460Y-83575210D01*
X142709895Y-83495988D01*
X142578154Y-83441419D01*
X142438298Y-83413600D01*
X142295702Y-83413600D01*
X142155846Y-83441419D01*
X142024105Y-83495988D01*
X141905540Y-83575210D01*
X141863950Y-83616800D01*
X139110517Y-83616800D01*
X139088067Y-83614589D01*
X139065617Y-83616800D01*
X139065607Y-83616800D01*
X138998440Y-83623415D01*
X138932316Y-83643474D01*
X138912257Y-83649559D01*
X138832831Y-83692013D01*
X138780659Y-83734829D01*
X138780653Y-83734835D01*
X138763214Y-83749147D01*
X138748902Y-83766586D01*
X135709593Y-86805897D01*
X135692148Y-86820214D01*
X135677831Y-86837659D01*
X135677830Y-86837660D01*
X135635013Y-86889832D01*
X135616197Y-86925036D01*
X135592560Y-86969258D01*
X135569945Y-87043809D01*
X135566416Y-87055441D01*
X135565889Y-87060795D01*
X135555540Y-87067710D01*
X135454710Y-87168540D01*
X135375488Y-87287105D01*
X135320919Y-87418846D01*
X135293100Y-87558702D01*
X135293100Y-87701298D01*
X135320919Y-87841154D01*
X135375488Y-87972895D01*
X135454710Y-88091460D01*
X135555540Y-88192290D01*
X135674105Y-88271512D01*
X135805846Y-88326081D01*
X135945702Y-88353900D01*
X136088298Y-88353900D01*
X136228154Y-88326081D01*
X136359895Y-88271512D01*
X136478460Y-88192290D01*
X136579290Y-88091460D01*
X136658512Y-87972895D01*
X136713081Y-87841154D01*
X136740900Y-87701298D01*
X136740900Y-87558702D01*
X136713081Y-87418846D01*
X136658512Y-87287105D01*
X136603649Y-87204996D01*
X139277446Y-84531200D01*
X140775284Y-84531200D01*
X140754100Y-84637702D01*
X140754100Y-84780298D01*
X140781919Y-84920154D01*
X140836488Y-85051895D01*
X140915710Y-85170460D01*
X141016540Y-85271290D01*
X141135105Y-85350512D01*
X141266846Y-85405081D01*
X141406702Y-85432900D01*
X141447559Y-85432900D01*
X142214600Y-86199942D01*
X142214601Y-87969637D01*
X142188587Y-87980412D01*
X141995157Y-88109658D01*
X141830658Y-88274157D01*
X141701412Y-88467587D01*
X141685148Y-88506852D01*
X140165216Y-89662000D01*
X134683500Y-89662000D01*
X134674610Y-89662312D01*
X131055110Y-89916312D01*
X131030565Y-89920480D01*
X131007305Y-89929357D01*
X130986224Y-89942602D01*
X130967050Y-89960965D01*
X128871550Y-92437465D01*
X128857409Y-92457956D01*
X128847537Y-92480811D01*
X128841546Y-92516069D01*
X128743722Y-96135569D01*
X128745492Y-96160402D01*
X128752073Y-96184413D01*
X128763212Y-96206679D01*
X128778480Y-96226344D01*
X128797291Y-96242652D01*
X128818923Y-96254977D01*
X128842543Y-96262845D01*
X128870676Y-96266000D01*
X129822359Y-96266000D01*
X129832105Y-96272512D01*
X129963846Y-96327081D01*
X130103702Y-96354900D01*
X130246298Y-96354900D01*
X130386154Y-96327081D01*
X130517895Y-96272512D01*
X130527641Y-96266000D01*
X165441711Y-96266000D01*
X167822285Y-97894814D01*
X167823245Y-97895465D01*
X170331495Y-99578215D01*
X170353430Y-99589992D01*
X170377241Y-99597263D01*
X170404204Y-99599735D01*
X172467954Y-99567985D01*
X172492690Y-99565164D01*
X172516400Y-99557571D01*
X172538173Y-99545499D01*
X172555803Y-99530803D01*
X173063803Y-99022803D01*
X173079597Y-99003557D01*
X173091333Y-98981601D01*
X173098560Y-98957776D01*
X173101000Y-98933000D01*
X173101000Y-97805634D01*
X173457824Y-96378338D01*
X175651697Y-96031937D01*
X175652810Y-96038811D01*
X175661509Y-96062138D01*
X175674592Y-96083320D01*
X175691556Y-96101542D01*
X175711749Y-96116105D01*
X175734395Y-96126449D01*
X175758624Y-96132176D01*
X175783504Y-96133066D01*
X175808080Y-96129085D01*
X175831407Y-96120386D01*
X175851782Y-96107913D01*
X176860200Y-95351600D01*
X176878557Y-95334782D01*
X176893280Y-95314706D01*
X176903804Y-95292143D01*
X176909724Y-95267961D01*
X176911000Y-95250000D01*
X176911000Y-94414354D01*
X176949000Y-94223318D01*
X176949000Y-93990682D01*
X176911000Y-93799646D01*
X176911000Y-91874354D01*
X176949000Y-91683318D01*
X176949000Y-91450682D01*
X176911000Y-91259646D01*
X176911000Y-90225021D01*
X178866222Y-88392000D01*
X180841491Y-88392000D01*
X180721950Y-90782815D01*
X179202616Y-95720651D01*
X179197662Y-95745050D01*
X179197563Y-95769946D01*
X179202323Y-95794383D01*
X179208256Y-95810272D01*
X180986256Y-99747272D01*
X180998678Y-99768848D01*
X181015070Y-99787586D01*
X181034803Y-99802766D01*
X181049982Y-99810858D01*
X183736739Y-101017157D01*
X183643000Y-101017157D01*
X183568311Y-101024513D01*
X183496492Y-101046299D01*
X183430304Y-101081678D01*
X183372289Y-101129289D01*
X183324678Y-101187304D01*
X183289299Y-101253492D01*
X183267513Y-101325311D01*
X183260157Y-101400000D01*
X183260157Y-101618385D01*
X183222895Y-101593488D01*
X183091154Y-101538919D01*
X182951298Y-101511100D01*
X182808702Y-101511100D01*
X182668846Y-101538919D01*
X182537105Y-101593488D01*
X182418540Y-101672710D01*
X182317710Y-101773540D01*
X182238488Y-101892105D01*
X182183919Y-102023846D01*
X182156100Y-102163702D01*
X182156100Y-102306298D01*
X182183919Y-102446154D01*
X182238488Y-102577895D01*
X182317710Y-102696460D01*
X182418540Y-102797290D01*
X182537105Y-102876512D01*
X182668846Y-102931081D01*
X182808702Y-102958900D01*
X182951298Y-102958900D01*
X183091154Y-102931081D01*
X183222895Y-102876512D01*
X183260157Y-102851615D01*
X183260157Y-104900000D01*
X183260354Y-104902000D01*
X178691919Y-104902000D01*
X178815967Y-99443886D01*
X178814091Y-99419060D01*
X178807407Y-99395078D01*
X178796173Y-99372860D01*
X178780820Y-99353261D01*
X178758376Y-99334623D01*
X175837376Y-97429623D01*
X175815290Y-97418133D01*
X175791387Y-97411172D01*
X175766584Y-97409008D01*
X175741837Y-97411724D01*
X175718094Y-97419216D01*
X175691800Y-97434400D01*
X174675800Y-98196400D01*
X174657443Y-98213218D01*
X174642720Y-98233294D01*
X174632196Y-98255857D01*
X174626276Y-98280039D01*
X174625000Y-98298000D01*
X174625000Y-98879646D01*
X174587000Y-99070682D01*
X174587000Y-99303318D01*
X174625000Y-99494354D01*
X174625000Y-100753044D01*
X174136386Y-102157808D01*
X173057425Y-102997000D01*
X169329452Y-102997000D01*
X162122447Y-98192330D01*
X162100478Y-98180617D01*
X162076646Y-98173414D01*
X162051500Y-98171001D01*
X145922500Y-98234501D01*
X145897733Y-98237039D01*
X145873938Y-98244360D01*
X145852027Y-98256182D01*
X145832845Y-98272052D01*
X145817126Y-98291359D01*
X145805477Y-98313362D01*
X145798344Y-98337214D01*
X145796000Y-98361500D01*
X145796000Y-100543036D01*
X143533935Y-103684793D01*
X143532958Y-103686170D01*
X142748000Y-104807539D01*
X141994529Y-103731151D01*
X142618331Y-100736902D01*
X142620995Y-100712149D01*
X142618779Y-100687351D01*
X142613760Y-100668732D01*
X141851760Y-98509732D01*
X141841213Y-98487180D01*
X141826468Y-98467119D01*
X141808094Y-98450320D01*
X141786795Y-98437429D01*
X141763390Y-98428940D01*
X141732000Y-98425000D01*
X130810000Y-98425000D01*
X130785224Y-98427440D01*
X130761399Y-98434667D01*
X130739443Y-98446403D01*
X130716316Y-98466255D01*
X123919322Y-105892600D01*
X119346942Y-105892600D01*
X117424907Y-103970566D01*
X116502804Y-102871135D01*
X116465512Y-102781105D01*
X116386290Y-102662540D01*
X116285460Y-102561710D01*
X116189522Y-102497607D01*
X115824000Y-102061792D01*
X115824000Y-99874290D01*
X121071711Y-99874290D01*
X121071711Y-100016886D01*
X121099530Y-100156742D01*
X121154099Y-100288483D01*
X121233321Y-100407048D01*
X121334151Y-100507878D01*
X121452716Y-100587100D01*
X121584457Y-100641669D01*
X121724313Y-100669488D01*
X121866909Y-100669488D01*
X122006765Y-100641669D01*
X122138506Y-100587100D01*
X122257071Y-100507878D01*
X122280327Y-100484622D01*
X122283955Y-100484979D01*
X122310142Y-100482400D01*
X123544813Y-100482400D01*
X123571000Y-100484979D01*
X123597187Y-100482400D01*
X123597195Y-100482400D01*
X123675565Y-100474681D01*
X123776111Y-100444181D01*
X123868775Y-100394651D01*
X123949995Y-100327995D01*
X123966696Y-100307645D01*
X126268441Y-98005900D01*
X126309298Y-98005900D01*
X126449154Y-97978081D01*
X126580895Y-97923512D01*
X126699460Y-97844290D01*
X126800290Y-97743460D01*
X126879512Y-97624895D01*
X126934081Y-97493154D01*
X126961900Y-97353298D01*
X126961900Y-97210702D01*
X126934081Y-97070846D01*
X126879512Y-96939105D01*
X126800290Y-96820540D01*
X126699460Y-96719710D01*
X126580895Y-96640488D01*
X126449154Y-96585919D01*
X126309298Y-96558100D01*
X126166702Y-96558100D01*
X126026846Y-96585919D01*
X125895105Y-96640488D01*
X125776540Y-96719710D01*
X125675710Y-96820540D01*
X125596488Y-96939105D01*
X125541919Y-97070846D01*
X125514100Y-97210702D01*
X125514100Y-97251559D01*
X123350059Y-99415600D01*
X122341381Y-99415600D01*
X122306739Y-99412188D01*
X122306731Y-99412188D01*
X122283692Y-99409919D01*
X122257071Y-99383298D01*
X122138506Y-99304076D01*
X122006765Y-99249507D01*
X121866909Y-99221688D01*
X121724313Y-99221688D01*
X121584457Y-99249507D01*
X121452716Y-99304076D01*
X121334151Y-99383298D01*
X121233321Y-99484128D01*
X121154099Y-99602693D01*
X121099530Y-99734434D01*
X121071711Y-99874290D01*
X115824000Y-99874290D01*
X115824000Y-89916000D01*
X116126589Y-89916000D01*
X116128801Y-89938460D01*
X116128800Y-94211550D01*
X116126589Y-94234000D01*
X116128800Y-94256450D01*
X116128800Y-94256459D01*
X116135415Y-94323626D01*
X116161559Y-94409808D01*
X116204013Y-94489235D01*
X116261147Y-94558853D01*
X116278597Y-94573174D01*
X117643830Y-95938408D01*
X117658147Y-95955853D01*
X117675592Y-95970170D01*
X117727763Y-96012987D01*
X117770217Y-96035678D01*
X117807191Y-96055441D01*
X117893373Y-96081585D01*
X117960540Y-96088200D01*
X117960549Y-96088200D01*
X117982999Y-96090411D01*
X118005449Y-96088200D01*
X121227864Y-96088200D01*
X121230710Y-96092460D01*
X121331540Y-96193290D01*
X121450105Y-96272512D01*
X121581846Y-96327081D01*
X121721702Y-96354900D01*
X121864298Y-96354900D01*
X122004154Y-96327081D01*
X122135895Y-96272512D01*
X122254460Y-96193290D01*
X122355290Y-96092460D01*
X122434512Y-95973895D01*
X122489081Y-95842154D01*
X122516900Y-95702298D01*
X122516900Y-95559702D01*
X122489081Y-95419846D01*
X122434512Y-95288105D01*
X122355290Y-95169540D01*
X122254460Y-95068710D01*
X122135895Y-94989488D01*
X122004154Y-94934919D01*
X121864298Y-94907100D01*
X121721702Y-94907100D01*
X121581846Y-94934919D01*
X121450105Y-94989488D01*
X121331540Y-95068710D01*
X121230710Y-95169540D01*
X121227864Y-95173800D01*
X118172378Y-95173800D01*
X117043200Y-94044623D01*
X117043200Y-91467084D01*
X117125470Y-91590209D01*
X117324791Y-91789530D01*
X117559167Y-91946136D01*
X117819593Y-92054007D01*
X118096059Y-92109000D01*
X118377941Y-92109000D01*
X118654407Y-92054007D01*
X118914833Y-91946136D01*
X119149209Y-91789530D01*
X119348530Y-91590209D01*
X119505136Y-91355833D01*
X119613007Y-91095407D01*
X119668000Y-90818941D01*
X119668000Y-90537059D01*
X126006000Y-90537059D01*
X126006000Y-90818941D01*
X126060993Y-91095407D01*
X126168864Y-91355833D01*
X126325470Y-91590209D01*
X126524791Y-91789530D01*
X126759167Y-91946136D01*
X127019593Y-92054007D01*
X127296059Y-92109000D01*
X127577941Y-92109000D01*
X127854407Y-92054007D01*
X128114833Y-91946136D01*
X128349209Y-91789530D01*
X128548530Y-91590209D01*
X128705136Y-91355833D01*
X128813007Y-91095407D01*
X128868000Y-90818941D01*
X128868000Y-90537059D01*
X128813007Y-90260593D01*
X128705136Y-90000167D01*
X128548530Y-89765791D01*
X128349209Y-89566470D01*
X128114833Y-89409864D01*
X127854407Y-89301993D01*
X127577941Y-89247000D01*
X127296059Y-89247000D01*
X127019593Y-89301993D01*
X126759167Y-89409864D01*
X126524791Y-89566470D01*
X126325470Y-89765791D01*
X126168864Y-90000167D01*
X126060993Y-90260593D01*
X126006000Y-90537059D01*
X119668000Y-90537059D01*
X119613007Y-90260593D01*
X119505136Y-90000167D01*
X119348530Y-89765791D01*
X119149209Y-89566470D01*
X118914833Y-89409864D01*
X118654407Y-89301993D01*
X118377941Y-89247000D01*
X118096059Y-89247000D01*
X117819593Y-89301993D01*
X117811650Y-89305283D01*
X117790081Y-89196846D01*
X117735512Y-89065105D01*
X117656290Y-88946540D01*
X117555460Y-88845710D01*
X117436895Y-88766488D01*
X117305154Y-88711919D01*
X117165298Y-88684100D01*
X117022702Y-88684100D01*
X116882846Y-88711919D01*
X116751105Y-88766488D01*
X116632540Y-88845710D01*
X116531710Y-88946540D01*
X116452488Y-89065105D01*
X116397919Y-89196846D01*
X116370100Y-89336702D01*
X116370100Y-89479298D01*
X116371100Y-89484323D01*
X116278592Y-89576831D01*
X116261148Y-89591147D01*
X116246831Y-89608592D01*
X116246830Y-89608593D01*
X116204013Y-89660765D01*
X116165482Y-89732853D01*
X116161560Y-89740191D01*
X116147129Y-89787764D01*
X116135416Y-89826374D01*
X116126589Y-89916000D01*
X115824000Y-89916000D01*
X115824000Y-82550000D01*
X178562000Y-82550000D01*
X178562000Y-87249000D01*
G36*
X193421000Y-96557278D02*
G01*
X193421000Y-99053312D01*
X187325843Y-102883377D01*
X187325843Y-101400000D01*
X187318487Y-101325311D01*
X187296701Y-101253492D01*
X187261322Y-101187304D01*
X187213711Y-101129289D01*
X187155696Y-101081678D01*
X187089508Y-101046299D01*
X187017689Y-101024513D01*
X186943000Y-101017157D01*
X185869627Y-101017157D01*
X187340436Y-100837058D01*
X187364732Y-100831625D01*
X187387501Y-100821556D01*
X187404336Y-100810170D01*
X189944336Y-98778170D01*
X189962159Y-98760787D01*
X189970670Y-98749447D01*
X191699850Y-96155677D01*
X193421000Y-96557278D01*
G37*
X193421000Y-96557278D02*
X193421000Y-99053312D01*
X187325843Y-102883377D01*
X187325843Y-101400000D01*
X187318487Y-101325311D01*
X187296701Y-101253492D01*
X187261322Y-101187304D01*
X187213711Y-101129289D01*
X187155696Y-101081678D01*
X187089508Y-101046299D01*
X187017689Y-101024513D01*
X186943000Y-101017157D01*
X185869627Y-101017157D01*
X187340436Y-100837058D01*
X187364732Y-100831625D01*
X187387501Y-100821556D01*
X187404336Y-100810170D01*
X189944336Y-98778170D01*
X189962159Y-98760787D01*
X189970670Y-98749447D01*
X191699850Y-96155677D01*
X193421000Y-96557278D01*
M02*
