M48
; DRILL file {KiCad 5.1.5} date Wed 04 Dec 2019 09:50:26 AM EST
; FORMAT={-:-/ absolute / inch / decimal}
; #@! TF.CreationDate,2019-12-04T09:50:26-05:00
; #@! TF.GenerationSoftware,Kicad,Pcbnew,5.1.5
FMAT,2
INCH
T1C0.0130
T2C0.0197
T3C0.0433
T4C0.0866
%
G90
G05
T1
X4.56Y-4.06
X4.565Y-3.36
X4.61Y-3.52
X4.625Y-4.0
X4.665Y-4.06
X4.685Y-4.0
X4.7Y-4.14
X4.715Y-4.085
X4.765Y-4.105
X4.795Y-3.765
X4.7951Y-3.9349
X4.805Y-4.15
X4.845Y-4.1
X4.955Y-3.31
X4.97Y-3.83
X5.0Y-3.38
X5.125Y-3.765
X5.16Y-3.725
X5.19Y-3.76
X5.225Y-3.725
X5.25Y-3.76
X5.355Y-3.45
X5.41Y-4.07
X5.555Y-3.4
X5.57Y-3.335
X5.57Y-3.72
X5.59Y-3.755
X5.605Y-3.3125
X5.64Y-3.755
X5.785Y-3.345
X6.02Y-3.42
X6.225Y-3.38
X6.65Y-4.01
X6.995Y-4.045
X6.995Y-4.09
X7.035Y-3.265
X7.035Y-3.335
X7.035Y-3.425
X7.035Y-3.52
X7.07Y-3.49
X7.1Y-3.52
X7.145Y-4.11
X7.19Y-4.08
X7.2Y-4.025
X7.205Y-3.435
X7.215Y-3.265
X7.305Y-3.535
X7.365Y-3.595
X7.375Y-3.265
X7.385Y-3.435
X7.39Y-3.525
X7.435Y-3.64
X7.445Y-3.57
X7.495Y-3.645
X7.565Y-3.265
X7.565Y-3.345
X7.565Y-3.435
X7.575Y-3.815
X7.605Y-3.795
X7.605Y-3.845
X7.605Y-4.07
T2
X6.2752Y-3.395
X6.3244Y-3.395
X6.3737Y-3.395
X6.4229Y-3.395
X6.4721Y-3.395
X6.5213Y-3.395
X6.5705Y-3.395
X6.6197Y-3.395
X6.6689Y-3.395
X6.7181Y-3.395
X6.7674Y-3.395
X6.8166Y-3.395
X6.8658Y-3.395
X6.915Y-3.395
X6.765Y-3.6347
X6.765Y-3.6839
X6.765Y-3.7331
X6.765Y-3.7824
X6.765Y-3.8316
X6.765Y-3.8808
X6.765Y-3.93
X6.765Y-3.9792
T3
X4.655Y-3.57
X5.0172Y-3.57
X5.62Y-3.505
X5.62Y-4.105
X5.72Y-3.505
X5.72Y-3.605
X5.72Y-4.105
X5.82Y-3.505
X5.82Y-4.105
X5.92Y-3.505
X5.92Y-4.105
X6.02Y-3.505
X6.02Y-4.105
X6.12Y-3.505
X6.12Y-4.105
X6.22Y-3.505
X6.22Y-4.105
X6.32Y-3.505
X6.32Y-4.105
X6.42Y-3.505
X6.42Y-4.105
X6.52Y-3.505
X6.52Y-4.105
X6.62Y-3.505
X6.62Y-4.105
X6.72Y-3.505
X6.72Y-4.105
X6.82Y-3.505
X6.82Y-4.105
X6.92Y-3.505
X6.92Y-3.605
X6.92Y-3.705
X6.92Y-3.805
X6.92Y-3.905
X6.92Y-4.005
X6.92Y-4.105
T4
X5.21Y-3.6243
X5.21Y-3.955
X5.3656Y-3.6243
X5.3656Y-3.955
X5.5211Y-3.6243
X5.5211Y-3.955
X5.6766Y-3.955
X5.832Y-3.6243
X5.832Y-3.955
X5.9875Y-3.6243
X5.9875Y-3.955
X6.143Y-3.6243
X6.143Y-3.955
X6.2985Y-3.6243
X6.2985Y-3.955
T0
M30
