G04 #@! TF.GenerationSoftware,KiCad,Pcbnew,5.1.5*
G04 #@! TF.CreationDate,2019-12-04T09:49:36-05:00*
G04 #@! TF.ProjectId,obd-teensy-oled,6f62642d-7465-4656-9e73-792d6f6c6564,rev?*
G04 #@! TF.SameCoordinates,Original*
G04 #@! TF.FileFunction,Soldermask,Bot*
G04 #@! TF.FilePolarity,Negative*
%FSLAX46Y46*%
G04 Gerber Fmt 4.6, Leading zero omitted, Abs format (unit mm)*
G04 Created by KiCad (PCBNEW 5.1.5) date 2019-12-04 09:49:36*
%MOMM*%
%LPD*%
G04 APERTURE LIST*
%ADD10C,0.100000*%
G04 APERTURE END LIST*
D10*
G36*
X182601870Y-106391710D02*
G01*
X181298850Y-106391710D01*
X181298850Y-105190290D01*
X182601870Y-105190290D01*
X182601870Y-106391710D01*
G37*
G36*
X180905150Y-106391710D02*
G01*
X179602130Y-106391710D01*
X179602130Y-105190290D01*
X180905150Y-105190290D01*
X180905150Y-106391710D01*
G37*
G36*
X191872870Y-105756710D02*
G01*
X190569850Y-105756710D01*
X190569850Y-104555290D01*
X191872870Y-104555290D01*
X191872870Y-105756710D01*
G37*
G36*
X190176150Y-105756710D02*
G01*
X188873130Y-105756710D01*
X188873130Y-104555290D01*
X190176150Y-104555290D01*
X190176150Y-105756710D01*
G37*
G36*
X168396169Y-103448895D02*
G01*
X168551005Y-103513031D01*
X168690354Y-103606140D01*
X168808860Y-103724646D01*
X168901969Y-103863995D01*
X168966105Y-104018831D01*
X168998800Y-104183203D01*
X168998800Y-104350797D01*
X168966105Y-104515169D01*
X168901969Y-104670005D01*
X168808860Y-104809354D01*
X168690354Y-104927860D01*
X168551005Y-105020969D01*
X168396169Y-105085105D01*
X168231797Y-105117800D01*
X168064203Y-105117800D01*
X167899831Y-105085105D01*
X167744995Y-105020969D01*
X167605646Y-104927860D01*
X167487140Y-104809354D01*
X167394031Y-104670005D01*
X167329895Y-104515169D01*
X167297200Y-104350797D01*
X167297200Y-104183203D01*
X167329895Y-104018831D01*
X167394031Y-103863995D01*
X167487140Y-103724646D01*
X167605646Y-103606140D01*
X167744995Y-103513031D01*
X167899831Y-103448895D01*
X168064203Y-103416200D01*
X168231797Y-103416200D01*
X168396169Y-103448895D01*
G37*
G36*
X145536169Y-103448895D02*
G01*
X145691005Y-103513031D01*
X145830354Y-103606140D01*
X145948860Y-103724646D01*
X146041969Y-103863995D01*
X146106105Y-104018831D01*
X146138800Y-104183203D01*
X146138800Y-104350797D01*
X146106105Y-104515169D01*
X146041969Y-104670005D01*
X145948860Y-104809354D01*
X145830354Y-104927860D01*
X145691005Y-105020969D01*
X145536169Y-105085105D01*
X145371797Y-105117800D01*
X145204203Y-105117800D01*
X145039831Y-105085105D01*
X144884995Y-105020969D01*
X144745646Y-104927860D01*
X144627140Y-104809354D01*
X144534031Y-104670005D01*
X144469895Y-104515169D01*
X144437200Y-104350797D01*
X144437200Y-104183203D01*
X144469895Y-104018831D01*
X144534031Y-103863995D01*
X144627140Y-103724646D01*
X144745646Y-103606140D01*
X144884995Y-103513031D01*
X145039831Y-103448895D01*
X145204203Y-103416200D01*
X145371797Y-103416200D01*
X145536169Y-103448895D01*
G37*
G36*
X143598800Y-105117800D02*
G01*
X141897200Y-105117800D01*
X141897200Y-103416200D01*
X143598800Y-103416200D01*
X143598800Y-105117800D01*
G37*
G36*
X173476169Y-103448895D02*
G01*
X173631005Y-103513031D01*
X173770354Y-103606140D01*
X173888860Y-103724646D01*
X173981969Y-103863995D01*
X174046105Y-104018831D01*
X174078800Y-104183203D01*
X174078800Y-104350797D01*
X174046105Y-104515169D01*
X173981969Y-104670005D01*
X173888860Y-104809354D01*
X173770354Y-104927860D01*
X173631005Y-105020969D01*
X173476169Y-105085105D01*
X173311797Y-105117800D01*
X173144203Y-105117800D01*
X172979831Y-105085105D01*
X172824995Y-105020969D01*
X172685646Y-104927860D01*
X172567140Y-104809354D01*
X172474031Y-104670005D01*
X172409895Y-104515169D01*
X172377200Y-104350797D01*
X172377200Y-104183203D01*
X172409895Y-104018831D01*
X172474031Y-103863995D01*
X172567140Y-103724646D01*
X172685646Y-103606140D01*
X172824995Y-103513031D01*
X172979831Y-103448895D01*
X173144203Y-103416200D01*
X173311797Y-103416200D01*
X173476169Y-103448895D01*
G37*
G36*
X170936169Y-103448895D02*
G01*
X171091005Y-103513031D01*
X171230354Y-103606140D01*
X171348860Y-103724646D01*
X171441969Y-103863995D01*
X171506105Y-104018831D01*
X171538800Y-104183203D01*
X171538800Y-104350797D01*
X171506105Y-104515169D01*
X171441969Y-104670005D01*
X171348860Y-104809354D01*
X171230354Y-104927860D01*
X171091005Y-105020969D01*
X170936169Y-105085105D01*
X170771797Y-105117800D01*
X170604203Y-105117800D01*
X170439831Y-105085105D01*
X170284995Y-105020969D01*
X170145646Y-104927860D01*
X170027140Y-104809354D01*
X169934031Y-104670005D01*
X169869895Y-104515169D01*
X169837200Y-104350797D01*
X169837200Y-104183203D01*
X169869895Y-104018831D01*
X169934031Y-103863995D01*
X170027140Y-103724646D01*
X170145646Y-103606140D01*
X170284995Y-103513031D01*
X170439831Y-103448895D01*
X170604203Y-103416200D01*
X170771797Y-103416200D01*
X170936169Y-103448895D01*
G37*
G36*
X165856169Y-103448895D02*
G01*
X166011005Y-103513031D01*
X166150354Y-103606140D01*
X166268860Y-103724646D01*
X166361969Y-103863995D01*
X166426105Y-104018831D01*
X166458800Y-104183203D01*
X166458800Y-104350797D01*
X166426105Y-104515169D01*
X166361969Y-104670005D01*
X166268860Y-104809354D01*
X166150354Y-104927860D01*
X166011005Y-105020969D01*
X165856169Y-105085105D01*
X165691797Y-105117800D01*
X165524203Y-105117800D01*
X165359831Y-105085105D01*
X165204995Y-105020969D01*
X165065646Y-104927860D01*
X164947140Y-104809354D01*
X164854031Y-104670005D01*
X164789895Y-104515169D01*
X164757200Y-104350797D01*
X164757200Y-104183203D01*
X164789895Y-104018831D01*
X164854031Y-103863995D01*
X164947140Y-103724646D01*
X165065646Y-103606140D01*
X165204995Y-103513031D01*
X165359831Y-103448895D01*
X165524203Y-103416200D01*
X165691797Y-103416200D01*
X165856169Y-103448895D01*
G37*
G36*
X163316169Y-103448895D02*
G01*
X163471005Y-103513031D01*
X163610354Y-103606140D01*
X163728860Y-103724646D01*
X163821969Y-103863995D01*
X163886105Y-104018831D01*
X163918800Y-104183203D01*
X163918800Y-104350797D01*
X163886105Y-104515169D01*
X163821969Y-104670005D01*
X163728860Y-104809354D01*
X163610354Y-104927860D01*
X163471005Y-105020969D01*
X163316169Y-105085105D01*
X163151797Y-105117800D01*
X162984203Y-105117800D01*
X162819831Y-105085105D01*
X162664995Y-105020969D01*
X162525646Y-104927860D01*
X162407140Y-104809354D01*
X162314031Y-104670005D01*
X162249895Y-104515169D01*
X162217200Y-104350797D01*
X162217200Y-104183203D01*
X162249895Y-104018831D01*
X162314031Y-103863995D01*
X162407140Y-103724646D01*
X162525646Y-103606140D01*
X162664995Y-103513031D01*
X162819831Y-103448895D01*
X162984203Y-103416200D01*
X163151797Y-103416200D01*
X163316169Y-103448895D01*
G37*
G36*
X160776169Y-103448895D02*
G01*
X160931005Y-103513031D01*
X161070354Y-103606140D01*
X161188860Y-103724646D01*
X161281969Y-103863995D01*
X161346105Y-104018831D01*
X161378800Y-104183203D01*
X161378800Y-104350797D01*
X161346105Y-104515169D01*
X161281969Y-104670005D01*
X161188860Y-104809354D01*
X161070354Y-104927860D01*
X160931005Y-105020969D01*
X160776169Y-105085105D01*
X160611797Y-105117800D01*
X160444203Y-105117800D01*
X160279831Y-105085105D01*
X160124995Y-105020969D01*
X159985646Y-104927860D01*
X159867140Y-104809354D01*
X159774031Y-104670005D01*
X159709895Y-104515169D01*
X159677200Y-104350797D01*
X159677200Y-104183203D01*
X159709895Y-104018831D01*
X159774031Y-103863995D01*
X159867140Y-103724646D01*
X159985646Y-103606140D01*
X160124995Y-103513031D01*
X160279831Y-103448895D01*
X160444203Y-103416200D01*
X160611797Y-103416200D01*
X160776169Y-103448895D01*
G37*
G36*
X158236169Y-103448895D02*
G01*
X158391005Y-103513031D01*
X158530354Y-103606140D01*
X158648860Y-103724646D01*
X158741969Y-103863995D01*
X158806105Y-104018831D01*
X158838800Y-104183203D01*
X158838800Y-104350797D01*
X158806105Y-104515169D01*
X158741969Y-104670005D01*
X158648860Y-104809354D01*
X158530354Y-104927860D01*
X158391005Y-105020969D01*
X158236169Y-105085105D01*
X158071797Y-105117800D01*
X157904203Y-105117800D01*
X157739831Y-105085105D01*
X157584995Y-105020969D01*
X157445646Y-104927860D01*
X157327140Y-104809354D01*
X157234031Y-104670005D01*
X157169895Y-104515169D01*
X157137200Y-104350797D01*
X157137200Y-104183203D01*
X157169895Y-104018831D01*
X157234031Y-103863995D01*
X157327140Y-103724646D01*
X157445646Y-103606140D01*
X157584995Y-103513031D01*
X157739831Y-103448895D01*
X157904203Y-103416200D01*
X158071797Y-103416200D01*
X158236169Y-103448895D01*
G37*
G36*
X155696169Y-103448895D02*
G01*
X155851005Y-103513031D01*
X155990354Y-103606140D01*
X156108860Y-103724646D01*
X156201969Y-103863995D01*
X156266105Y-104018831D01*
X156298800Y-104183203D01*
X156298800Y-104350797D01*
X156266105Y-104515169D01*
X156201969Y-104670005D01*
X156108860Y-104809354D01*
X155990354Y-104927860D01*
X155851005Y-105020969D01*
X155696169Y-105085105D01*
X155531797Y-105117800D01*
X155364203Y-105117800D01*
X155199831Y-105085105D01*
X155044995Y-105020969D01*
X154905646Y-104927860D01*
X154787140Y-104809354D01*
X154694031Y-104670005D01*
X154629895Y-104515169D01*
X154597200Y-104350797D01*
X154597200Y-104183203D01*
X154629895Y-104018831D01*
X154694031Y-103863995D01*
X154787140Y-103724646D01*
X154905646Y-103606140D01*
X155044995Y-103513031D01*
X155199831Y-103448895D01*
X155364203Y-103416200D01*
X155531797Y-103416200D01*
X155696169Y-103448895D01*
G37*
G36*
X153156169Y-103448895D02*
G01*
X153311005Y-103513031D01*
X153450354Y-103606140D01*
X153568860Y-103724646D01*
X153661969Y-103863995D01*
X153726105Y-104018831D01*
X153758800Y-104183203D01*
X153758800Y-104350797D01*
X153726105Y-104515169D01*
X153661969Y-104670005D01*
X153568860Y-104809354D01*
X153450354Y-104927860D01*
X153311005Y-105020969D01*
X153156169Y-105085105D01*
X152991797Y-105117800D01*
X152824203Y-105117800D01*
X152659831Y-105085105D01*
X152504995Y-105020969D01*
X152365646Y-104927860D01*
X152247140Y-104809354D01*
X152154031Y-104670005D01*
X152089895Y-104515169D01*
X152057200Y-104350797D01*
X152057200Y-104183203D01*
X152089895Y-104018831D01*
X152154031Y-103863995D01*
X152247140Y-103724646D01*
X152365646Y-103606140D01*
X152504995Y-103513031D01*
X152659831Y-103448895D01*
X152824203Y-103416200D01*
X152991797Y-103416200D01*
X153156169Y-103448895D01*
G37*
G36*
X150616169Y-103448895D02*
G01*
X150771005Y-103513031D01*
X150910354Y-103606140D01*
X151028860Y-103724646D01*
X151121969Y-103863995D01*
X151186105Y-104018831D01*
X151218800Y-104183203D01*
X151218800Y-104350797D01*
X151186105Y-104515169D01*
X151121969Y-104670005D01*
X151028860Y-104809354D01*
X150910354Y-104927860D01*
X150771005Y-105020969D01*
X150616169Y-105085105D01*
X150451797Y-105117800D01*
X150284203Y-105117800D01*
X150119831Y-105085105D01*
X149964995Y-105020969D01*
X149825646Y-104927860D01*
X149707140Y-104809354D01*
X149614031Y-104670005D01*
X149549895Y-104515169D01*
X149517200Y-104350797D01*
X149517200Y-104183203D01*
X149549895Y-104018831D01*
X149614031Y-103863995D01*
X149707140Y-103724646D01*
X149825646Y-103606140D01*
X149964995Y-103513031D01*
X150119831Y-103448895D01*
X150284203Y-103416200D01*
X150451797Y-103416200D01*
X150616169Y-103448895D01*
G37*
G36*
X176016169Y-103448895D02*
G01*
X176171005Y-103513031D01*
X176310354Y-103606140D01*
X176428860Y-103724646D01*
X176521969Y-103863995D01*
X176586105Y-104018831D01*
X176618800Y-104183203D01*
X176618800Y-104350797D01*
X176586105Y-104515169D01*
X176521969Y-104670005D01*
X176428860Y-104809354D01*
X176310354Y-104927860D01*
X176171005Y-105020969D01*
X176016169Y-105085105D01*
X175851797Y-105117800D01*
X175684203Y-105117800D01*
X175519831Y-105085105D01*
X175364995Y-105020969D01*
X175225646Y-104927860D01*
X175107140Y-104809354D01*
X175014031Y-104670005D01*
X174949895Y-104515169D01*
X174917200Y-104350797D01*
X174917200Y-104183203D01*
X174949895Y-104018831D01*
X175014031Y-103863995D01*
X175107140Y-103724646D01*
X175225646Y-103606140D01*
X175364995Y-103513031D01*
X175519831Y-103448895D01*
X175684203Y-103416200D01*
X175851797Y-103416200D01*
X176016169Y-103448895D01*
G37*
G36*
X148076169Y-103448895D02*
G01*
X148231005Y-103513031D01*
X148370354Y-103606140D01*
X148488860Y-103724646D01*
X148581969Y-103863995D01*
X148646105Y-104018831D01*
X148678800Y-104183203D01*
X148678800Y-104350797D01*
X148646105Y-104515169D01*
X148581969Y-104670005D01*
X148488860Y-104809354D01*
X148370354Y-104927860D01*
X148231005Y-105020969D01*
X148076169Y-105085105D01*
X147911797Y-105117800D01*
X147744203Y-105117800D01*
X147579831Y-105085105D01*
X147424995Y-105020969D01*
X147285646Y-104927860D01*
X147167140Y-104809354D01*
X147074031Y-104670005D01*
X147009895Y-104515169D01*
X146977200Y-104350797D01*
X146977200Y-104183203D01*
X147009895Y-104018831D01*
X147074031Y-103863995D01*
X147167140Y-103724646D01*
X147285646Y-103606140D01*
X147424995Y-103513031D01*
X147579831Y-103448895D01*
X147744203Y-103416200D01*
X147911797Y-103416200D01*
X148076169Y-103448895D01*
G37*
G36*
X186993800Y-104950800D02*
G01*
X183592200Y-104950800D01*
X183592200Y-101349200D01*
X186993800Y-101349200D01*
X186993800Y-104950800D01*
G37*
G36*
X190084710Y-103978710D02*
G01*
X188883290Y-103978710D01*
X188883290Y-102777290D01*
X190084710Y-102777290D01*
X190084710Y-103978710D01*
G37*
G36*
X191837310Y-103978710D02*
G01*
X190635890Y-103978710D01*
X190635890Y-102777290D01*
X191837310Y-102777290D01*
X191837310Y-103978710D01*
G37*
G36*
X176016169Y-100908895D02*
G01*
X176171005Y-100973031D01*
X176310354Y-101066140D01*
X176428860Y-101184646D01*
X176521969Y-101323995D01*
X176586105Y-101478831D01*
X176618800Y-101643203D01*
X176618800Y-101810797D01*
X176586105Y-101975169D01*
X176521969Y-102130005D01*
X176428860Y-102269354D01*
X176310354Y-102387860D01*
X176171005Y-102480969D01*
X176016169Y-102545105D01*
X175851797Y-102577800D01*
X175684203Y-102577800D01*
X175519831Y-102545105D01*
X175364995Y-102480969D01*
X175225646Y-102387860D01*
X175107140Y-102269354D01*
X175014031Y-102130005D01*
X174949895Y-101975169D01*
X174917200Y-101810797D01*
X174917200Y-101643203D01*
X174949895Y-101478831D01*
X175014031Y-101323995D01*
X175107140Y-101184646D01*
X175225646Y-101066140D01*
X175364995Y-100973031D01*
X175519831Y-100908895D01*
X175684203Y-100876200D01*
X175851797Y-100876200D01*
X176016169Y-100908895D01*
G37*
G36*
X132832620Y-98813272D02*
G01*
X133143713Y-98942131D01*
X133216102Y-98990500D01*
X133423692Y-99129207D01*
X133661793Y-99367308D01*
X133751587Y-99501694D01*
X133848869Y-99647287D01*
X133977728Y-99958380D01*
X134043420Y-100288637D01*
X134043420Y-100625363D01*
X133977728Y-100955620D01*
X133848869Y-101266713D01*
X133798983Y-101341373D01*
X133689222Y-101505642D01*
X133661792Y-101546693D01*
X133423693Y-101784792D01*
X133143713Y-101971869D01*
X132832620Y-102100728D01*
X132502363Y-102166420D01*
X132165637Y-102166420D01*
X131835380Y-102100728D01*
X131524287Y-101971869D01*
X131244307Y-101784792D01*
X131006208Y-101546693D01*
X130978779Y-101505642D01*
X130869017Y-101341373D01*
X130819131Y-101266713D01*
X130690272Y-100955620D01*
X130624580Y-100625363D01*
X130624580Y-100288637D01*
X130690272Y-99958380D01*
X130819131Y-99647287D01*
X130916413Y-99501694D01*
X131006207Y-99367308D01*
X131244308Y-99129207D01*
X131451898Y-98990500D01*
X131524287Y-98942131D01*
X131835380Y-98813272D01*
X132165637Y-98747580D01*
X132502363Y-98747580D01*
X132832620Y-98813272D01*
G37*
G36*
X160480520Y-98813272D02*
G01*
X160791613Y-98942131D01*
X160864002Y-98990500D01*
X161071592Y-99129207D01*
X161309693Y-99367308D01*
X161399487Y-99501694D01*
X161496769Y-99647287D01*
X161625628Y-99958380D01*
X161691320Y-100288637D01*
X161691320Y-100625363D01*
X161625628Y-100955620D01*
X161496769Y-101266713D01*
X161446883Y-101341373D01*
X161337122Y-101505642D01*
X161309692Y-101546693D01*
X161071593Y-101784792D01*
X160791613Y-101971869D01*
X160480520Y-102100728D01*
X160150263Y-102166420D01*
X159813537Y-102166420D01*
X159483280Y-102100728D01*
X159172187Y-101971869D01*
X158892207Y-101784792D01*
X158654108Y-101546693D01*
X158626679Y-101505642D01*
X158516917Y-101341373D01*
X158467031Y-101266713D01*
X158338172Y-100955620D01*
X158272480Y-100625363D01*
X158272480Y-100288637D01*
X158338172Y-99958380D01*
X158467031Y-99647287D01*
X158564313Y-99501694D01*
X158654107Y-99367308D01*
X158892208Y-99129207D01*
X159099798Y-98990500D01*
X159172187Y-98942131D01*
X159483280Y-98813272D01*
X159813537Y-98747580D01*
X160150263Y-98747580D01*
X160480520Y-98813272D01*
G37*
G36*
X156530820Y-98813272D02*
G01*
X156841913Y-98942131D01*
X156914302Y-98990500D01*
X157121892Y-99129207D01*
X157359993Y-99367308D01*
X157449787Y-99501694D01*
X157547069Y-99647287D01*
X157675928Y-99958380D01*
X157741620Y-100288637D01*
X157741620Y-100625363D01*
X157675928Y-100955620D01*
X157547069Y-101266713D01*
X157497183Y-101341373D01*
X157387422Y-101505642D01*
X157359992Y-101546693D01*
X157121893Y-101784792D01*
X156841913Y-101971869D01*
X156530820Y-102100728D01*
X156200563Y-102166420D01*
X155863837Y-102166420D01*
X155533580Y-102100728D01*
X155222487Y-101971869D01*
X154942507Y-101784792D01*
X154704408Y-101546693D01*
X154676979Y-101505642D01*
X154567217Y-101341373D01*
X154517331Y-101266713D01*
X154388472Y-100955620D01*
X154322780Y-100625363D01*
X154322780Y-100288637D01*
X154388472Y-99958380D01*
X154517331Y-99647287D01*
X154614613Y-99501694D01*
X154704407Y-99367308D01*
X154942508Y-99129207D01*
X155150098Y-98990500D01*
X155222487Y-98942131D01*
X155533580Y-98813272D01*
X155863837Y-98747580D01*
X156200563Y-98747580D01*
X156530820Y-98813272D01*
G37*
G36*
X152581120Y-98813272D02*
G01*
X152892213Y-98942131D01*
X152964602Y-98990500D01*
X153172192Y-99129207D01*
X153410293Y-99367308D01*
X153500087Y-99501694D01*
X153597369Y-99647287D01*
X153726228Y-99958380D01*
X153791920Y-100288637D01*
X153791920Y-100625363D01*
X153726228Y-100955620D01*
X153597369Y-101266713D01*
X153547483Y-101341373D01*
X153437722Y-101505642D01*
X153410292Y-101546693D01*
X153172193Y-101784792D01*
X152892213Y-101971869D01*
X152581120Y-102100728D01*
X152250863Y-102166420D01*
X151914137Y-102166420D01*
X151583880Y-102100728D01*
X151272787Y-101971869D01*
X150992807Y-101784792D01*
X150754708Y-101546693D01*
X150727279Y-101505642D01*
X150617517Y-101341373D01*
X150567631Y-101266713D01*
X150438772Y-100955620D01*
X150373080Y-100625363D01*
X150373080Y-100288637D01*
X150438772Y-99958380D01*
X150567631Y-99647287D01*
X150664913Y-99501694D01*
X150754707Y-99367308D01*
X150992808Y-99129207D01*
X151200398Y-98990500D01*
X151272787Y-98942131D01*
X151583880Y-98813272D01*
X151914137Y-98747580D01*
X152250863Y-98747580D01*
X152581120Y-98813272D01*
G37*
G36*
X144684260Y-98813272D02*
G01*
X144995353Y-98942131D01*
X145067742Y-98990500D01*
X145275332Y-99129207D01*
X145513433Y-99367308D01*
X145603227Y-99501694D01*
X145700509Y-99647287D01*
X145829368Y-99958380D01*
X145895060Y-100288637D01*
X145895060Y-100625363D01*
X145829368Y-100955620D01*
X145700509Y-101266713D01*
X145650623Y-101341373D01*
X145540862Y-101505642D01*
X145513432Y-101546693D01*
X145275333Y-101784792D01*
X144995353Y-101971869D01*
X144684260Y-102100728D01*
X144354003Y-102166420D01*
X144017277Y-102166420D01*
X143687020Y-102100728D01*
X143375927Y-101971869D01*
X143095947Y-101784792D01*
X142857848Y-101546693D01*
X142830419Y-101505642D01*
X142720657Y-101341373D01*
X142670771Y-101266713D01*
X142541912Y-100955620D01*
X142476220Y-100625363D01*
X142476220Y-100288637D01*
X142541912Y-99958380D01*
X142670771Y-99647287D01*
X142768053Y-99501694D01*
X142857847Y-99367308D01*
X143095948Y-99129207D01*
X143303538Y-98990500D01*
X143375927Y-98942131D01*
X143687020Y-98813272D01*
X144017277Y-98747580D01*
X144354003Y-98747580D01*
X144684260Y-98813272D01*
G37*
G36*
X140734560Y-98813272D02*
G01*
X141045653Y-98942131D01*
X141118042Y-98990500D01*
X141325632Y-99129207D01*
X141563733Y-99367308D01*
X141653527Y-99501694D01*
X141750809Y-99647287D01*
X141879668Y-99958380D01*
X141945360Y-100288637D01*
X141945360Y-100625363D01*
X141879668Y-100955620D01*
X141750809Y-101266713D01*
X141700923Y-101341373D01*
X141591162Y-101505642D01*
X141563732Y-101546693D01*
X141325633Y-101784792D01*
X141045653Y-101971869D01*
X140734560Y-102100728D01*
X140404303Y-102166420D01*
X140067577Y-102166420D01*
X139737320Y-102100728D01*
X139426227Y-101971869D01*
X139146247Y-101784792D01*
X138908148Y-101546693D01*
X138880719Y-101505642D01*
X138770957Y-101341373D01*
X138721071Y-101266713D01*
X138592212Y-100955620D01*
X138526520Y-100625363D01*
X138526520Y-100288637D01*
X138592212Y-99958380D01*
X138721071Y-99647287D01*
X138818353Y-99501694D01*
X138908147Y-99367308D01*
X139146248Y-99129207D01*
X139353838Y-98990500D01*
X139426227Y-98942131D01*
X139737320Y-98813272D01*
X140067577Y-98747580D01*
X140404303Y-98747580D01*
X140734560Y-98813272D01*
G37*
G36*
X136784860Y-98813272D02*
G01*
X137095953Y-98942131D01*
X137168342Y-98990500D01*
X137375932Y-99129207D01*
X137614033Y-99367308D01*
X137703827Y-99501694D01*
X137801109Y-99647287D01*
X137929968Y-99958380D01*
X137995660Y-100288637D01*
X137995660Y-100625363D01*
X137929968Y-100955620D01*
X137801109Y-101266713D01*
X137751223Y-101341373D01*
X137641462Y-101505642D01*
X137614032Y-101546693D01*
X137375933Y-101784792D01*
X137095953Y-101971869D01*
X136784860Y-102100728D01*
X136454603Y-102166420D01*
X136117877Y-102166420D01*
X135787620Y-102100728D01*
X135476527Y-101971869D01*
X135196547Y-101784792D01*
X134958448Y-101546693D01*
X134931019Y-101505642D01*
X134821257Y-101341373D01*
X134771371Y-101266713D01*
X134642512Y-100955620D01*
X134576820Y-100625363D01*
X134576820Y-100288637D01*
X134642512Y-99958380D01*
X134771371Y-99647287D01*
X134868653Y-99501694D01*
X134958447Y-99367308D01*
X135196548Y-99129207D01*
X135404138Y-98990500D01*
X135476527Y-98942131D01*
X135787620Y-98813272D01*
X136117877Y-98747580D01*
X136454603Y-98747580D01*
X136784860Y-98813272D01*
G37*
G36*
X148631420Y-98813272D02*
G01*
X148942513Y-98942131D01*
X149014902Y-98990500D01*
X149222492Y-99129207D01*
X149460593Y-99367308D01*
X149550387Y-99501694D01*
X149647669Y-99647287D01*
X149776528Y-99958380D01*
X149842220Y-100288637D01*
X149842220Y-100625363D01*
X149776528Y-100955620D01*
X149647669Y-101266713D01*
X149597783Y-101341373D01*
X149488022Y-101505642D01*
X149460592Y-101546693D01*
X149222493Y-101784792D01*
X148942513Y-101971869D01*
X148631420Y-102100728D01*
X148301163Y-102166420D01*
X147964437Y-102166420D01*
X147634180Y-102100728D01*
X147323087Y-101971869D01*
X147043107Y-101784792D01*
X146805008Y-101546693D01*
X146777579Y-101505642D01*
X146667817Y-101341373D01*
X146617931Y-101266713D01*
X146489072Y-100955620D01*
X146423380Y-100625363D01*
X146423380Y-100288637D01*
X146489072Y-99958380D01*
X146617931Y-99647287D01*
X146715213Y-99501694D01*
X146805007Y-99367308D01*
X147043108Y-99129207D01*
X147250698Y-98990500D01*
X147323087Y-98942131D01*
X147634180Y-98813272D01*
X147964437Y-98747580D01*
X148301163Y-98747580D01*
X148631420Y-98813272D01*
G37*
G36*
X172370766Y-100625283D02*
G01*
X172408242Y-100636651D01*
X172442778Y-100655111D01*
X172473048Y-100679952D01*
X172497889Y-100710222D01*
X172516349Y-100744758D01*
X172527717Y-100782234D01*
X172531800Y-100823691D01*
X172531800Y-101320309D01*
X172527717Y-101361766D01*
X172516349Y-101399242D01*
X172497889Y-101433778D01*
X172473048Y-101464048D01*
X172442778Y-101488889D01*
X172408242Y-101507349D01*
X172370766Y-101518717D01*
X172329309Y-101522800D01*
X171332691Y-101522800D01*
X171291234Y-101518717D01*
X171253758Y-101507349D01*
X171219222Y-101488889D01*
X171188952Y-101464048D01*
X171164111Y-101433778D01*
X171145651Y-101399242D01*
X171134283Y-101361766D01*
X171130200Y-101320309D01*
X171130200Y-100823691D01*
X171134283Y-100782234D01*
X171145651Y-100744758D01*
X171164111Y-100710222D01*
X171188952Y-100679952D01*
X171219222Y-100655111D01*
X171253758Y-100636651D01*
X171291234Y-100625283D01*
X171332691Y-100621200D01*
X172329309Y-100621200D01*
X172370766Y-100625283D01*
G37*
G36*
X186795433Y-90297142D02*
G01*
X187732819Y-90685420D01*
X188576444Y-91249112D01*
X189293888Y-91966556D01*
X189857580Y-92810181D01*
X190245858Y-93747567D01*
X190443800Y-94742690D01*
X190443800Y-95757310D01*
X190245858Y-96752433D01*
X189857580Y-97689819D01*
X189293888Y-98533444D01*
X188576444Y-99250888D01*
X187732819Y-99814580D01*
X186795433Y-100202858D01*
X185800310Y-100400800D01*
X184785690Y-100400800D01*
X183790567Y-100202858D01*
X182853181Y-99814580D01*
X182009556Y-99250888D01*
X181292112Y-98533444D01*
X180728420Y-97689819D01*
X180340142Y-96752433D01*
X180142200Y-95757310D01*
X180142200Y-94742690D01*
X180340142Y-93747567D01*
X180728420Y-92810181D01*
X181292112Y-91966556D01*
X182009556Y-91249112D01*
X182853181Y-90685420D01*
X183790567Y-90297142D01*
X184785690Y-90099200D01*
X185800310Y-90099200D01*
X186795433Y-90297142D01*
G37*
G36*
X172169369Y-99377722D02*
G01*
X172169372Y-99377723D01*
X172254348Y-99403500D01*
X172332663Y-99445360D01*
X172401306Y-99501694D01*
X172457640Y-99570337D01*
X172499500Y-99648652D01*
X172522330Y-99723912D01*
X172525278Y-99733631D01*
X172533982Y-99822000D01*
X172525278Y-99910369D01*
X172525277Y-99910372D01*
X172499500Y-99995348D01*
X172457640Y-100073663D01*
X172401306Y-100142306D01*
X172332663Y-100198640D01*
X172254348Y-100240500D01*
X172179088Y-100263330D01*
X172169369Y-100266278D01*
X172103149Y-100272800D01*
X171558851Y-100272800D01*
X171492631Y-100266278D01*
X171482912Y-100263330D01*
X171407652Y-100240500D01*
X171329337Y-100198640D01*
X171260694Y-100142306D01*
X171204360Y-100073663D01*
X171162500Y-99995348D01*
X171136723Y-99910372D01*
X171136722Y-99910369D01*
X171128018Y-99822000D01*
X171136722Y-99733631D01*
X171139670Y-99723912D01*
X171162500Y-99648652D01*
X171204360Y-99570337D01*
X171260694Y-99501694D01*
X171329337Y-99445360D01*
X171407652Y-99403500D01*
X171492628Y-99377723D01*
X171492631Y-99377722D01*
X171558851Y-99371200D01*
X172103149Y-99371200D01*
X172169369Y-99377722D01*
G37*
G36*
X176016169Y-98368895D02*
G01*
X176171005Y-98433031D01*
X176310354Y-98526140D01*
X176428860Y-98644646D01*
X176521969Y-98783995D01*
X176586105Y-98938831D01*
X176618800Y-99103203D01*
X176618800Y-99270797D01*
X176586105Y-99435169D01*
X176521969Y-99590005D01*
X176428860Y-99729354D01*
X176310354Y-99847860D01*
X176171005Y-99940969D01*
X176016169Y-100005105D01*
X175851797Y-100037800D01*
X175684203Y-100037800D01*
X175519831Y-100005105D01*
X175364995Y-99940969D01*
X175225646Y-99847860D01*
X175107140Y-99729354D01*
X175014031Y-99590005D01*
X174949895Y-99435169D01*
X174917200Y-99270797D01*
X174917200Y-99103203D01*
X174949895Y-98938831D01*
X175014031Y-98783995D01*
X175107140Y-98644646D01*
X175225646Y-98526140D01*
X175364995Y-98433031D01*
X175519831Y-98368895D01*
X175684203Y-98336200D01*
X175851797Y-98336200D01*
X176016169Y-98368895D01*
G37*
G36*
X172169369Y-98127722D02*
G01*
X172169372Y-98127723D01*
X172254348Y-98153500D01*
X172332663Y-98195360D01*
X172401306Y-98251694D01*
X172457640Y-98320337D01*
X172499500Y-98398652D01*
X172522330Y-98473912D01*
X172525278Y-98483631D01*
X172533982Y-98572000D01*
X172525278Y-98660369D01*
X172525277Y-98660372D01*
X172499500Y-98745348D01*
X172457640Y-98823663D01*
X172401306Y-98892306D01*
X172332663Y-98948640D01*
X172254348Y-98990500D01*
X172179088Y-99013330D01*
X172169369Y-99016278D01*
X172103149Y-99022800D01*
X171558851Y-99022800D01*
X171492631Y-99016278D01*
X171482912Y-99013330D01*
X171407652Y-98990500D01*
X171329337Y-98948640D01*
X171260694Y-98892306D01*
X171204360Y-98823663D01*
X171162500Y-98745348D01*
X171136723Y-98660372D01*
X171136722Y-98660369D01*
X171128018Y-98572000D01*
X171136722Y-98483631D01*
X171139670Y-98473912D01*
X171162500Y-98398652D01*
X171204360Y-98320337D01*
X171260694Y-98251694D01*
X171329337Y-98195360D01*
X171407652Y-98153500D01*
X171492628Y-98127723D01*
X171492631Y-98127722D01*
X171558851Y-98121200D01*
X172103149Y-98121200D01*
X172169369Y-98127722D01*
G37*
G36*
X172169369Y-96877722D02*
G01*
X172169372Y-96877723D01*
X172254348Y-96903500D01*
X172332663Y-96945360D01*
X172401306Y-97001694D01*
X172457640Y-97070337D01*
X172499500Y-97148652D01*
X172511847Y-97189355D01*
X172525278Y-97233631D01*
X172533982Y-97322000D01*
X172525278Y-97410369D01*
X172525277Y-97410372D01*
X172499500Y-97495348D01*
X172457640Y-97573663D01*
X172401306Y-97642306D01*
X172332663Y-97698640D01*
X172254348Y-97740500D01*
X172179088Y-97763330D01*
X172169369Y-97766278D01*
X172103149Y-97772800D01*
X171558851Y-97772800D01*
X171492631Y-97766278D01*
X171482912Y-97763330D01*
X171407652Y-97740500D01*
X171329337Y-97698640D01*
X171260694Y-97642306D01*
X171204360Y-97573663D01*
X171162500Y-97495348D01*
X171136723Y-97410372D01*
X171136722Y-97410369D01*
X171128018Y-97322000D01*
X171136722Y-97233631D01*
X171150153Y-97189355D01*
X171162500Y-97148652D01*
X171204360Y-97070337D01*
X171260694Y-97001694D01*
X171329337Y-96945360D01*
X171407652Y-96903500D01*
X171492628Y-96877723D01*
X171492631Y-96877722D01*
X171558851Y-96871200D01*
X172103149Y-96871200D01*
X172169369Y-96877722D01*
G37*
G36*
X176016169Y-95828895D02*
G01*
X176171005Y-95893031D01*
X176310354Y-95986140D01*
X176428860Y-96104646D01*
X176521969Y-96243995D01*
X176586105Y-96398831D01*
X176618800Y-96563203D01*
X176618800Y-96730797D01*
X176586105Y-96895169D01*
X176521969Y-97050005D01*
X176428860Y-97189354D01*
X176310354Y-97307860D01*
X176171005Y-97400969D01*
X176016169Y-97465105D01*
X175851797Y-97497800D01*
X175684203Y-97497800D01*
X175519831Y-97465105D01*
X175364995Y-97400969D01*
X175225646Y-97307860D01*
X175107140Y-97189354D01*
X175014031Y-97050005D01*
X174949895Y-96895169D01*
X174917200Y-96730797D01*
X174917200Y-96563203D01*
X174949895Y-96398831D01*
X175014031Y-96243995D01*
X175107140Y-96104646D01*
X175225646Y-95986140D01*
X175364995Y-95893031D01*
X175519831Y-95828895D01*
X175684203Y-95796200D01*
X175851797Y-95796200D01*
X176016169Y-95828895D01*
G37*
G36*
X172169369Y-95627722D02*
G01*
X172169372Y-95627723D01*
X172254348Y-95653500D01*
X172332663Y-95695360D01*
X172401306Y-95751694D01*
X172457640Y-95820337D01*
X172499500Y-95898652D01*
X172522330Y-95973912D01*
X172525278Y-95983631D01*
X172533982Y-96072000D01*
X172525278Y-96160369D01*
X172525277Y-96160372D01*
X172499500Y-96245348D01*
X172457640Y-96323663D01*
X172401306Y-96392306D01*
X172332663Y-96448640D01*
X172254348Y-96490500D01*
X172179088Y-96513330D01*
X172169369Y-96516278D01*
X172103149Y-96522800D01*
X171558851Y-96522800D01*
X171492631Y-96516278D01*
X171482912Y-96513330D01*
X171407652Y-96490500D01*
X171329337Y-96448640D01*
X171260694Y-96392306D01*
X171204360Y-96323663D01*
X171162500Y-96245348D01*
X171136723Y-96160372D01*
X171136722Y-96160369D01*
X171128018Y-96072000D01*
X171136722Y-95983631D01*
X171139670Y-95973912D01*
X171162500Y-95898652D01*
X171204360Y-95820337D01*
X171260694Y-95751694D01*
X171329337Y-95695360D01*
X171407652Y-95653500D01*
X171492628Y-95627723D01*
X171492631Y-95627722D01*
X171558851Y-95621200D01*
X172103149Y-95621200D01*
X172169369Y-95627722D01*
G37*
G36*
X172169369Y-94377722D02*
G01*
X172169372Y-94377723D01*
X172254348Y-94403500D01*
X172332663Y-94445360D01*
X172401306Y-94501694D01*
X172457640Y-94570337D01*
X172499500Y-94648652D01*
X172499713Y-94649355D01*
X172525278Y-94733631D01*
X172533982Y-94822000D01*
X172525278Y-94910369D01*
X172525277Y-94910372D01*
X172499500Y-94995348D01*
X172457640Y-95073663D01*
X172401306Y-95142306D01*
X172332663Y-95198640D01*
X172254348Y-95240500D01*
X172179088Y-95263330D01*
X172169369Y-95266278D01*
X172103149Y-95272800D01*
X171558851Y-95272800D01*
X171492631Y-95266278D01*
X171482912Y-95263330D01*
X171407652Y-95240500D01*
X171329337Y-95198640D01*
X171260694Y-95142306D01*
X171204360Y-95073663D01*
X171162500Y-94995348D01*
X171136723Y-94910372D01*
X171136722Y-94910369D01*
X171128018Y-94822000D01*
X171136722Y-94733631D01*
X171162287Y-94649355D01*
X171162500Y-94648652D01*
X171204360Y-94570337D01*
X171260694Y-94501694D01*
X171329337Y-94445360D01*
X171407652Y-94403500D01*
X171492628Y-94377723D01*
X171492631Y-94377722D01*
X171558851Y-94371200D01*
X172103149Y-94371200D01*
X172169369Y-94377722D01*
G37*
G36*
X176016169Y-93288895D02*
G01*
X176171005Y-93353031D01*
X176310354Y-93446140D01*
X176428860Y-93564646D01*
X176521969Y-93703995D01*
X176586105Y-93858831D01*
X176618800Y-94023203D01*
X176618800Y-94190797D01*
X176586105Y-94355169D01*
X176521969Y-94510005D01*
X176428860Y-94649354D01*
X176310354Y-94767860D01*
X176171005Y-94860969D01*
X176016169Y-94925105D01*
X175851797Y-94957800D01*
X175684203Y-94957800D01*
X175519831Y-94925105D01*
X175364995Y-94860969D01*
X175225646Y-94767860D01*
X175107140Y-94649354D01*
X175014031Y-94510005D01*
X174949895Y-94355169D01*
X174917200Y-94190797D01*
X174917200Y-94023203D01*
X174949895Y-93858831D01*
X175014031Y-93703995D01*
X175107140Y-93564646D01*
X175225646Y-93446140D01*
X175364995Y-93353031D01*
X175519831Y-93288895D01*
X175684203Y-93256200D01*
X175851797Y-93256200D01*
X176016169Y-93288895D01*
G37*
G36*
X172169369Y-93127722D02*
G01*
X172169372Y-93127723D01*
X172254348Y-93153500D01*
X172332663Y-93195360D01*
X172401306Y-93251694D01*
X172457640Y-93320337D01*
X172499500Y-93398652D01*
X172513905Y-93446140D01*
X172525278Y-93483631D01*
X172533982Y-93572000D01*
X172525278Y-93660369D01*
X172525277Y-93660372D01*
X172499500Y-93745348D01*
X172457640Y-93823663D01*
X172401306Y-93892306D01*
X172332663Y-93948640D01*
X172254348Y-93990500D01*
X172179088Y-94013330D01*
X172169369Y-94016278D01*
X172103149Y-94022800D01*
X171558851Y-94022800D01*
X171492631Y-94016278D01*
X171482912Y-94013330D01*
X171407652Y-93990500D01*
X171329337Y-93948640D01*
X171260694Y-93892306D01*
X171204360Y-93823663D01*
X171162500Y-93745348D01*
X171136723Y-93660372D01*
X171136722Y-93660369D01*
X171128018Y-93572000D01*
X171136722Y-93483631D01*
X171148095Y-93446140D01*
X171162500Y-93398652D01*
X171204360Y-93320337D01*
X171260694Y-93251694D01*
X171329337Y-93195360D01*
X171407652Y-93153500D01*
X171492628Y-93127723D01*
X171492631Y-93127722D01*
X171558851Y-93121200D01*
X172103149Y-93121200D01*
X172169369Y-93127722D01*
G37*
G36*
X132832620Y-90413492D02*
G01*
X133143713Y-90542351D01*
X133143714Y-90542352D01*
X133423692Y-90729427D01*
X133661793Y-90967528D01*
X133682883Y-90999092D01*
X133848869Y-91247507D01*
X133977728Y-91558600D01*
X134043420Y-91888857D01*
X134043420Y-92225583D01*
X133977728Y-92555840D01*
X133848869Y-92866933D01*
X133848868Y-92866934D01*
X133661793Y-93146912D01*
X133423692Y-93385013D01*
X133332209Y-93446140D01*
X133143713Y-93572089D01*
X132832620Y-93700948D01*
X132502363Y-93766640D01*
X132165637Y-93766640D01*
X131835380Y-93700948D01*
X131524287Y-93572089D01*
X131335791Y-93446140D01*
X131244308Y-93385013D01*
X131006207Y-93146912D01*
X130819132Y-92866934D01*
X130819131Y-92866933D01*
X130690272Y-92555840D01*
X130624580Y-92225583D01*
X130624580Y-91888857D01*
X130690272Y-91558600D01*
X130819131Y-91247507D01*
X130985117Y-90999092D01*
X131006207Y-90967528D01*
X131244308Y-90729427D01*
X131524286Y-90542352D01*
X131524287Y-90542351D01*
X131835380Y-90413492D01*
X132165637Y-90347800D01*
X132502363Y-90347800D01*
X132832620Y-90413492D01*
G37*
G36*
X152581120Y-90413492D02*
G01*
X152892213Y-90542351D01*
X152892214Y-90542352D01*
X153172192Y-90729427D01*
X153410293Y-90967528D01*
X153431383Y-90999092D01*
X153597369Y-91247507D01*
X153726228Y-91558600D01*
X153791920Y-91888857D01*
X153791920Y-92225583D01*
X153726228Y-92555840D01*
X153597369Y-92866933D01*
X153597368Y-92866934D01*
X153410293Y-93146912D01*
X153172192Y-93385013D01*
X153080709Y-93446140D01*
X152892213Y-93572089D01*
X152581120Y-93700948D01*
X152250863Y-93766640D01*
X151914137Y-93766640D01*
X151583880Y-93700948D01*
X151272787Y-93572089D01*
X151084291Y-93446140D01*
X150992808Y-93385013D01*
X150754707Y-93146912D01*
X150567632Y-92866934D01*
X150567631Y-92866933D01*
X150438772Y-92555840D01*
X150373080Y-92225583D01*
X150373080Y-91888857D01*
X150438772Y-91558600D01*
X150567631Y-91247507D01*
X150733617Y-90999092D01*
X150754707Y-90967528D01*
X150992808Y-90729427D01*
X151272786Y-90542352D01*
X151272787Y-90542351D01*
X151583880Y-90413492D01*
X151914137Y-90347800D01*
X152250863Y-90347800D01*
X152581120Y-90413492D01*
G37*
G36*
X140734560Y-90413492D02*
G01*
X141045653Y-90542351D01*
X141045654Y-90542352D01*
X141325632Y-90729427D01*
X141563733Y-90967528D01*
X141584823Y-90999092D01*
X141750809Y-91247507D01*
X141879668Y-91558600D01*
X141945360Y-91888857D01*
X141945360Y-92225583D01*
X141879668Y-92555840D01*
X141750809Y-92866933D01*
X141750808Y-92866934D01*
X141563733Y-93146912D01*
X141325632Y-93385013D01*
X141234149Y-93446140D01*
X141045653Y-93572089D01*
X140734560Y-93700948D01*
X140404303Y-93766640D01*
X140067577Y-93766640D01*
X139737320Y-93700948D01*
X139426227Y-93572089D01*
X139237731Y-93446140D01*
X139146248Y-93385013D01*
X138908147Y-93146912D01*
X138721072Y-92866934D01*
X138721071Y-92866933D01*
X138592212Y-92555840D01*
X138526520Y-92225583D01*
X138526520Y-91888857D01*
X138592212Y-91558600D01*
X138721071Y-91247507D01*
X138887057Y-90999092D01*
X138908147Y-90967528D01*
X139146248Y-90729427D01*
X139426226Y-90542352D01*
X139426227Y-90542351D01*
X139737320Y-90413492D01*
X140067577Y-90347800D01*
X140404303Y-90347800D01*
X140734560Y-90413492D01*
G37*
G36*
X156530820Y-90413492D02*
G01*
X156841913Y-90542351D01*
X156841914Y-90542352D01*
X157121892Y-90729427D01*
X157359993Y-90967528D01*
X157381083Y-90999092D01*
X157547069Y-91247507D01*
X157675928Y-91558600D01*
X157741620Y-91888857D01*
X157741620Y-92225583D01*
X157675928Y-92555840D01*
X157547069Y-92866933D01*
X157547068Y-92866934D01*
X157359993Y-93146912D01*
X157121892Y-93385013D01*
X157030409Y-93446140D01*
X156841913Y-93572089D01*
X156530820Y-93700948D01*
X156200563Y-93766640D01*
X155863837Y-93766640D01*
X155533580Y-93700948D01*
X155222487Y-93572089D01*
X155033991Y-93446140D01*
X154942508Y-93385013D01*
X154704407Y-93146912D01*
X154517332Y-92866934D01*
X154517331Y-92866933D01*
X154388472Y-92555840D01*
X154322780Y-92225583D01*
X154322780Y-91888857D01*
X154388472Y-91558600D01*
X154517331Y-91247507D01*
X154683317Y-90999092D01*
X154704407Y-90967528D01*
X154942508Y-90729427D01*
X155222486Y-90542352D01*
X155222487Y-90542351D01*
X155533580Y-90413492D01*
X155863837Y-90347800D01*
X156200563Y-90347800D01*
X156530820Y-90413492D01*
G37*
G36*
X148631420Y-90413492D02*
G01*
X148942513Y-90542351D01*
X148942514Y-90542352D01*
X149222492Y-90729427D01*
X149460593Y-90967528D01*
X149481683Y-90999092D01*
X149647669Y-91247507D01*
X149776528Y-91558600D01*
X149842220Y-91888857D01*
X149842220Y-92225583D01*
X149776528Y-92555840D01*
X149647669Y-92866933D01*
X149647668Y-92866934D01*
X149460593Y-93146912D01*
X149222492Y-93385013D01*
X149131009Y-93446140D01*
X148942513Y-93572089D01*
X148631420Y-93700948D01*
X148301163Y-93766640D01*
X147964437Y-93766640D01*
X147634180Y-93700948D01*
X147323087Y-93572089D01*
X147134591Y-93446140D01*
X147043108Y-93385013D01*
X146805007Y-93146912D01*
X146617932Y-92866934D01*
X146617931Y-92866933D01*
X146489072Y-92555840D01*
X146423380Y-92225583D01*
X146423380Y-91888857D01*
X146489072Y-91558600D01*
X146617931Y-91247507D01*
X146783917Y-90999092D01*
X146805007Y-90967528D01*
X147043108Y-90729427D01*
X147323086Y-90542352D01*
X147323087Y-90542351D01*
X147634180Y-90413492D01*
X147964437Y-90347800D01*
X148301163Y-90347800D01*
X148631420Y-90413492D01*
G37*
G36*
X136784860Y-90413492D02*
G01*
X137095953Y-90542351D01*
X137095954Y-90542352D01*
X137375932Y-90729427D01*
X137614033Y-90967528D01*
X137635123Y-90999092D01*
X137801109Y-91247507D01*
X137929968Y-91558600D01*
X137995660Y-91888857D01*
X137995660Y-92225583D01*
X137929968Y-92555840D01*
X137801109Y-92866933D01*
X137801108Y-92866934D01*
X137614033Y-93146912D01*
X137375932Y-93385013D01*
X137284449Y-93446140D01*
X137095953Y-93572089D01*
X136784860Y-93700948D01*
X136454603Y-93766640D01*
X136117877Y-93766640D01*
X135787620Y-93700948D01*
X135476527Y-93572089D01*
X135288031Y-93446140D01*
X135196548Y-93385013D01*
X134958447Y-93146912D01*
X134771372Y-92866934D01*
X134771371Y-92866933D01*
X134642512Y-92555840D01*
X134576820Y-92225583D01*
X134576820Y-91888857D01*
X134642512Y-91558600D01*
X134771371Y-91247507D01*
X134937357Y-90999092D01*
X134958447Y-90967528D01*
X135196548Y-90729427D01*
X135476526Y-90542352D01*
X135476527Y-90542351D01*
X135787620Y-90413492D01*
X136117877Y-90347800D01*
X136454603Y-90347800D01*
X136784860Y-90413492D01*
G37*
G36*
X160480520Y-90413492D02*
G01*
X160791613Y-90542351D01*
X160791614Y-90542352D01*
X161071592Y-90729427D01*
X161309693Y-90967528D01*
X161330783Y-90999092D01*
X161496769Y-91247507D01*
X161625628Y-91558600D01*
X161691320Y-91888857D01*
X161691320Y-92225583D01*
X161625628Y-92555840D01*
X161496769Y-92866933D01*
X161496768Y-92866934D01*
X161309693Y-93146912D01*
X161071592Y-93385013D01*
X160980109Y-93446140D01*
X160791613Y-93572089D01*
X160480520Y-93700948D01*
X160150263Y-93766640D01*
X159813537Y-93766640D01*
X159483280Y-93700948D01*
X159172187Y-93572089D01*
X158983691Y-93446140D01*
X158892208Y-93385013D01*
X158654107Y-93146912D01*
X158467032Y-92866934D01*
X158467031Y-92866933D01*
X158338172Y-92555840D01*
X158272480Y-92225583D01*
X158272480Y-91888857D01*
X158338172Y-91558600D01*
X158467031Y-91247507D01*
X158633017Y-90999092D01*
X158654107Y-90967528D01*
X158892208Y-90729427D01*
X159172186Y-90542352D01*
X159172187Y-90542351D01*
X159483280Y-90413492D01*
X159813537Y-90347800D01*
X160150263Y-90347800D01*
X160480520Y-90413492D01*
G37*
G36*
X172169369Y-91877722D02*
G01*
X172169372Y-91877723D01*
X172254348Y-91903500D01*
X172332663Y-91945360D01*
X172401306Y-92001694D01*
X172457640Y-92070337D01*
X172499500Y-92148652D01*
X172522330Y-92223912D01*
X172525278Y-92233631D01*
X172533982Y-92322000D01*
X172525278Y-92410369D01*
X172525277Y-92410372D01*
X172499500Y-92495348D01*
X172457640Y-92573663D01*
X172401306Y-92642306D01*
X172332663Y-92698640D01*
X172254348Y-92740500D01*
X172179088Y-92763330D01*
X172169369Y-92766278D01*
X172103149Y-92772800D01*
X171558851Y-92772800D01*
X171492631Y-92766278D01*
X171482912Y-92763330D01*
X171407652Y-92740500D01*
X171329337Y-92698640D01*
X171260694Y-92642306D01*
X171204360Y-92573663D01*
X171162500Y-92495348D01*
X171136723Y-92410372D01*
X171136722Y-92410369D01*
X171128018Y-92322000D01*
X171136722Y-92233631D01*
X171139670Y-92223912D01*
X171162500Y-92148652D01*
X171204360Y-92070337D01*
X171260694Y-92001694D01*
X171329337Y-91945360D01*
X171407652Y-91903500D01*
X171492628Y-91877723D01*
X171492631Y-91877722D01*
X171558851Y-91871200D01*
X172103149Y-91871200D01*
X172169369Y-91877722D01*
G37*
G36*
X176016169Y-90748895D02*
G01*
X176171005Y-90813031D01*
X176310354Y-90906140D01*
X176428860Y-91024646D01*
X176521969Y-91163995D01*
X176586105Y-91318831D01*
X176618800Y-91483203D01*
X176618800Y-91650797D01*
X176586105Y-91815169D01*
X176521969Y-91970005D01*
X176428860Y-92109354D01*
X176310354Y-92227860D01*
X176171005Y-92320969D01*
X176016169Y-92385105D01*
X175851797Y-92417800D01*
X175684203Y-92417800D01*
X175519831Y-92385105D01*
X175364995Y-92320969D01*
X175225646Y-92227860D01*
X175107140Y-92109354D01*
X175014031Y-91970005D01*
X174949895Y-91815169D01*
X174917200Y-91650797D01*
X174917200Y-91483203D01*
X174949895Y-91318831D01*
X175014031Y-91163995D01*
X175107140Y-91024646D01*
X175225646Y-90906140D01*
X175364995Y-90813031D01*
X175519831Y-90748895D01*
X175684203Y-90716200D01*
X175851797Y-90716200D01*
X176016169Y-90748895D01*
G37*
G36*
X145536169Y-90748895D02*
G01*
X145691005Y-90813031D01*
X145830354Y-90906140D01*
X145948860Y-91024646D01*
X146041969Y-91163995D01*
X146106105Y-91318831D01*
X146138800Y-91483203D01*
X146138800Y-91650797D01*
X146106105Y-91815169D01*
X146041969Y-91970005D01*
X145948860Y-92109354D01*
X145830354Y-92227860D01*
X145691005Y-92320969D01*
X145536169Y-92385105D01*
X145371797Y-92417800D01*
X145204203Y-92417800D01*
X145039831Y-92385105D01*
X144884995Y-92320969D01*
X144745646Y-92227860D01*
X144627140Y-92109354D01*
X144534031Y-91970005D01*
X144469895Y-91815169D01*
X144437200Y-91650797D01*
X144437200Y-91483203D01*
X144469895Y-91318831D01*
X144534031Y-91163995D01*
X144627140Y-91024646D01*
X144745646Y-90906140D01*
X144884995Y-90813031D01*
X145039831Y-90748895D01*
X145204203Y-90716200D01*
X145371797Y-90716200D01*
X145536169Y-90748895D01*
G37*
G36*
X118558092Y-89619503D02*
G01*
X118758424Y-89702483D01*
X118938721Y-89822954D01*
X119092046Y-89976279D01*
X119212517Y-90156576D01*
X119295497Y-90356908D01*
X119337800Y-90569580D01*
X119337800Y-90786420D01*
X119295497Y-90999092D01*
X119212517Y-91199424D01*
X119092046Y-91379721D01*
X118938721Y-91533046D01*
X118758424Y-91653517D01*
X118558092Y-91736497D01*
X118345420Y-91778800D01*
X118128580Y-91778800D01*
X117915908Y-91736497D01*
X117715576Y-91653517D01*
X117535279Y-91533046D01*
X117381954Y-91379721D01*
X117261483Y-91199424D01*
X117178503Y-90999092D01*
X117136200Y-90786420D01*
X117136200Y-90569580D01*
X117178503Y-90356908D01*
X117261483Y-90156576D01*
X117381954Y-89976279D01*
X117535279Y-89822954D01*
X117715576Y-89702483D01*
X117915908Y-89619503D01*
X118128580Y-89577200D01*
X118345420Y-89577200D01*
X118558092Y-89619503D01*
G37*
G36*
X127758092Y-89619503D02*
G01*
X127958424Y-89702483D01*
X128138721Y-89822954D01*
X128292046Y-89976279D01*
X128412517Y-90156576D01*
X128495497Y-90356908D01*
X128537800Y-90569580D01*
X128537800Y-90786420D01*
X128495497Y-90999092D01*
X128412517Y-91199424D01*
X128292046Y-91379721D01*
X128138721Y-91533046D01*
X127958424Y-91653517D01*
X127758092Y-91736497D01*
X127545420Y-91778800D01*
X127328580Y-91778800D01*
X127115908Y-91736497D01*
X126915576Y-91653517D01*
X126735279Y-91533046D01*
X126581954Y-91379721D01*
X126461483Y-91199424D01*
X126378503Y-90999092D01*
X126336200Y-90786420D01*
X126336200Y-90569580D01*
X126378503Y-90356908D01*
X126461483Y-90156576D01*
X126581954Y-89976279D01*
X126735279Y-89822954D01*
X126915576Y-89702483D01*
X127115908Y-89619503D01*
X127328580Y-89577200D01*
X127545420Y-89577200D01*
X127758092Y-89619503D01*
G37*
G36*
X148076169Y-88208895D02*
G01*
X148231005Y-88273031D01*
X148370354Y-88366140D01*
X148488860Y-88484646D01*
X148581969Y-88623995D01*
X148646105Y-88778831D01*
X148678800Y-88943203D01*
X148678800Y-89110797D01*
X148646105Y-89275169D01*
X148581969Y-89430005D01*
X148488860Y-89569354D01*
X148370354Y-89687860D01*
X148231005Y-89780969D01*
X148076169Y-89845105D01*
X147911797Y-89877800D01*
X147744203Y-89877800D01*
X147579831Y-89845105D01*
X147424995Y-89780969D01*
X147285646Y-89687860D01*
X147167140Y-89569354D01*
X147074031Y-89430005D01*
X147009895Y-89275169D01*
X146977200Y-89110797D01*
X146977200Y-88943203D01*
X147009895Y-88778831D01*
X147074031Y-88623995D01*
X147167140Y-88484646D01*
X147285646Y-88366140D01*
X147424995Y-88273031D01*
X147579831Y-88208895D01*
X147744203Y-88176200D01*
X147911797Y-88176200D01*
X148076169Y-88208895D01*
G37*
G36*
X142996169Y-88208895D02*
G01*
X143151005Y-88273031D01*
X143290354Y-88366140D01*
X143408860Y-88484646D01*
X143501969Y-88623995D01*
X143566105Y-88778831D01*
X143598800Y-88943203D01*
X143598800Y-89110797D01*
X143566105Y-89275169D01*
X143501969Y-89430005D01*
X143408860Y-89569354D01*
X143290354Y-89687860D01*
X143151005Y-89780969D01*
X142996169Y-89845105D01*
X142831797Y-89877800D01*
X142664203Y-89877800D01*
X142499831Y-89845105D01*
X142344995Y-89780969D01*
X142205646Y-89687860D01*
X142087140Y-89569354D01*
X141994031Y-89430005D01*
X141929895Y-89275169D01*
X141897200Y-89110797D01*
X141897200Y-88943203D01*
X141929895Y-88778831D01*
X141994031Y-88623995D01*
X142087140Y-88484646D01*
X142205646Y-88366140D01*
X142344995Y-88273031D01*
X142499831Y-88208895D01*
X142664203Y-88176200D01*
X142831797Y-88176200D01*
X142996169Y-88208895D01*
G37*
G36*
X145536169Y-88208895D02*
G01*
X145691005Y-88273031D01*
X145830354Y-88366140D01*
X145948860Y-88484646D01*
X146041969Y-88623995D01*
X146106105Y-88778831D01*
X146138800Y-88943203D01*
X146138800Y-89110797D01*
X146106105Y-89275169D01*
X146041969Y-89430005D01*
X145948860Y-89569354D01*
X145830354Y-89687860D01*
X145691005Y-89780969D01*
X145536169Y-89845105D01*
X145371797Y-89877800D01*
X145204203Y-89877800D01*
X145039831Y-89845105D01*
X144884995Y-89780969D01*
X144745646Y-89687860D01*
X144627140Y-89569354D01*
X144534031Y-89430005D01*
X144469895Y-89275169D01*
X144437200Y-89110797D01*
X144437200Y-88943203D01*
X144469895Y-88778831D01*
X144534031Y-88623995D01*
X144627140Y-88484646D01*
X144745646Y-88366140D01*
X144884995Y-88273031D01*
X145039831Y-88208895D01*
X145204203Y-88176200D01*
X145371797Y-88176200D01*
X145536169Y-88208895D01*
G37*
G36*
X150616169Y-88208895D02*
G01*
X150771005Y-88273031D01*
X150910354Y-88366140D01*
X151028860Y-88484646D01*
X151121969Y-88623995D01*
X151186105Y-88778831D01*
X151218800Y-88943203D01*
X151218800Y-89110797D01*
X151186105Y-89275169D01*
X151121969Y-89430005D01*
X151028860Y-89569354D01*
X150910354Y-89687860D01*
X150771005Y-89780969D01*
X150616169Y-89845105D01*
X150451797Y-89877800D01*
X150284203Y-89877800D01*
X150119831Y-89845105D01*
X149964995Y-89780969D01*
X149825646Y-89687860D01*
X149707140Y-89569354D01*
X149614031Y-89430005D01*
X149549895Y-89275169D01*
X149517200Y-89110797D01*
X149517200Y-88943203D01*
X149549895Y-88778831D01*
X149614031Y-88623995D01*
X149707140Y-88484646D01*
X149825646Y-88366140D01*
X149964995Y-88273031D01*
X150119831Y-88208895D01*
X150284203Y-88176200D01*
X150451797Y-88176200D01*
X150616169Y-88208895D01*
G37*
G36*
X153156169Y-88208895D02*
G01*
X153311005Y-88273031D01*
X153450354Y-88366140D01*
X153568860Y-88484646D01*
X153661969Y-88623995D01*
X153726105Y-88778831D01*
X153758800Y-88943203D01*
X153758800Y-89110797D01*
X153726105Y-89275169D01*
X153661969Y-89430005D01*
X153568860Y-89569354D01*
X153450354Y-89687860D01*
X153311005Y-89780969D01*
X153156169Y-89845105D01*
X152991797Y-89877800D01*
X152824203Y-89877800D01*
X152659831Y-89845105D01*
X152504995Y-89780969D01*
X152365646Y-89687860D01*
X152247140Y-89569354D01*
X152154031Y-89430005D01*
X152089895Y-89275169D01*
X152057200Y-89110797D01*
X152057200Y-88943203D01*
X152089895Y-88778831D01*
X152154031Y-88623995D01*
X152247140Y-88484646D01*
X152365646Y-88366140D01*
X152504995Y-88273031D01*
X152659831Y-88208895D01*
X152824203Y-88176200D01*
X152991797Y-88176200D01*
X153156169Y-88208895D01*
G37*
G36*
X155696169Y-88208895D02*
G01*
X155851005Y-88273031D01*
X155990354Y-88366140D01*
X156108860Y-88484646D01*
X156201969Y-88623995D01*
X156266105Y-88778831D01*
X156298800Y-88943203D01*
X156298800Y-89110797D01*
X156266105Y-89275169D01*
X156201969Y-89430005D01*
X156108860Y-89569354D01*
X155990354Y-89687860D01*
X155851005Y-89780969D01*
X155696169Y-89845105D01*
X155531797Y-89877800D01*
X155364203Y-89877800D01*
X155199831Y-89845105D01*
X155044995Y-89780969D01*
X154905646Y-89687860D01*
X154787140Y-89569354D01*
X154694031Y-89430005D01*
X154629895Y-89275169D01*
X154597200Y-89110797D01*
X154597200Y-88943203D01*
X154629895Y-88778831D01*
X154694031Y-88623995D01*
X154787140Y-88484646D01*
X154905646Y-88366140D01*
X155044995Y-88273031D01*
X155199831Y-88208895D01*
X155364203Y-88176200D01*
X155531797Y-88176200D01*
X155696169Y-88208895D01*
G37*
G36*
X158236169Y-88208895D02*
G01*
X158391005Y-88273031D01*
X158530354Y-88366140D01*
X158648860Y-88484646D01*
X158741969Y-88623995D01*
X158806105Y-88778831D01*
X158838800Y-88943203D01*
X158838800Y-89110797D01*
X158806105Y-89275169D01*
X158741969Y-89430005D01*
X158648860Y-89569354D01*
X158530354Y-89687860D01*
X158391005Y-89780969D01*
X158236169Y-89845105D01*
X158071797Y-89877800D01*
X157904203Y-89877800D01*
X157739831Y-89845105D01*
X157584995Y-89780969D01*
X157445646Y-89687860D01*
X157327140Y-89569354D01*
X157234031Y-89430005D01*
X157169895Y-89275169D01*
X157137200Y-89110797D01*
X157137200Y-88943203D01*
X157169895Y-88778831D01*
X157234031Y-88623995D01*
X157327140Y-88484646D01*
X157445646Y-88366140D01*
X157584995Y-88273031D01*
X157739831Y-88208895D01*
X157904203Y-88176200D01*
X158071797Y-88176200D01*
X158236169Y-88208895D01*
G37*
G36*
X160776169Y-88208895D02*
G01*
X160931005Y-88273031D01*
X161070354Y-88366140D01*
X161188860Y-88484646D01*
X161281969Y-88623995D01*
X161346105Y-88778831D01*
X161378800Y-88943203D01*
X161378800Y-89110797D01*
X161346105Y-89275169D01*
X161281969Y-89430005D01*
X161188860Y-89569354D01*
X161070354Y-89687860D01*
X160931005Y-89780969D01*
X160776169Y-89845105D01*
X160611797Y-89877800D01*
X160444203Y-89877800D01*
X160279831Y-89845105D01*
X160124995Y-89780969D01*
X159985646Y-89687860D01*
X159867140Y-89569354D01*
X159774031Y-89430005D01*
X159709895Y-89275169D01*
X159677200Y-89110797D01*
X159677200Y-88943203D01*
X159709895Y-88778831D01*
X159774031Y-88623995D01*
X159867140Y-88484646D01*
X159985646Y-88366140D01*
X160124995Y-88273031D01*
X160279831Y-88208895D01*
X160444203Y-88176200D01*
X160611797Y-88176200D01*
X160776169Y-88208895D01*
G37*
G36*
X168396169Y-88208895D02*
G01*
X168551005Y-88273031D01*
X168690354Y-88366140D01*
X168808860Y-88484646D01*
X168901969Y-88623995D01*
X168966105Y-88778831D01*
X168998800Y-88943203D01*
X168998800Y-89110797D01*
X168966105Y-89275169D01*
X168901969Y-89430005D01*
X168808860Y-89569354D01*
X168690354Y-89687860D01*
X168551005Y-89780969D01*
X168396169Y-89845105D01*
X168231797Y-89877800D01*
X168064203Y-89877800D01*
X167899831Y-89845105D01*
X167744995Y-89780969D01*
X167605646Y-89687860D01*
X167487140Y-89569354D01*
X167394031Y-89430005D01*
X167329895Y-89275169D01*
X167297200Y-89110797D01*
X167297200Y-88943203D01*
X167329895Y-88778831D01*
X167394031Y-88623995D01*
X167487140Y-88484646D01*
X167605646Y-88366140D01*
X167744995Y-88273031D01*
X167899831Y-88208895D01*
X168064203Y-88176200D01*
X168231797Y-88176200D01*
X168396169Y-88208895D01*
G37*
G36*
X170936169Y-88208895D02*
G01*
X171091005Y-88273031D01*
X171230354Y-88366140D01*
X171348860Y-88484646D01*
X171441969Y-88623995D01*
X171506105Y-88778831D01*
X171538800Y-88943203D01*
X171538800Y-89110797D01*
X171506105Y-89275169D01*
X171441969Y-89430005D01*
X171348860Y-89569354D01*
X171230354Y-89687860D01*
X171091005Y-89780969D01*
X170936169Y-89845105D01*
X170771797Y-89877800D01*
X170604203Y-89877800D01*
X170439831Y-89845105D01*
X170284995Y-89780969D01*
X170145646Y-89687860D01*
X170027140Y-89569354D01*
X169934031Y-89430005D01*
X169869895Y-89275169D01*
X169837200Y-89110797D01*
X169837200Y-88943203D01*
X169869895Y-88778831D01*
X169934031Y-88623995D01*
X170027140Y-88484646D01*
X170145646Y-88366140D01*
X170284995Y-88273031D01*
X170439831Y-88208895D01*
X170604203Y-88176200D01*
X170771797Y-88176200D01*
X170936169Y-88208895D01*
G37*
G36*
X173476169Y-88208895D02*
G01*
X173631005Y-88273031D01*
X173770354Y-88366140D01*
X173888860Y-88484646D01*
X173981969Y-88623995D01*
X174046105Y-88778831D01*
X174078800Y-88943203D01*
X174078800Y-89110797D01*
X174046105Y-89275169D01*
X173981969Y-89430005D01*
X173888860Y-89569354D01*
X173770354Y-89687860D01*
X173631005Y-89780969D01*
X173476169Y-89845105D01*
X173311797Y-89877800D01*
X173144203Y-89877800D01*
X172979831Y-89845105D01*
X172824995Y-89780969D01*
X172685646Y-89687860D01*
X172567140Y-89569354D01*
X172474031Y-89430005D01*
X172409895Y-89275169D01*
X172377200Y-89110797D01*
X172377200Y-88943203D01*
X172409895Y-88778831D01*
X172474031Y-88623995D01*
X172567140Y-88484646D01*
X172685646Y-88366140D01*
X172824995Y-88273031D01*
X172979831Y-88208895D01*
X173144203Y-88176200D01*
X173311797Y-88176200D01*
X173476169Y-88208895D01*
G37*
G36*
X165856169Y-88208895D02*
G01*
X166011005Y-88273031D01*
X166150354Y-88366140D01*
X166268860Y-88484646D01*
X166361969Y-88623995D01*
X166426105Y-88778831D01*
X166458800Y-88943203D01*
X166458800Y-89110797D01*
X166426105Y-89275169D01*
X166361969Y-89430005D01*
X166268860Y-89569354D01*
X166150354Y-89687860D01*
X166011005Y-89780969D01*
X165856169Y-89845105D01*
X165691797Y-89877800D01*
X165524203Y-89877800D01*
X165359831Y-89845105D01*
X165204995Y-89780969D01*
X165065646Y-89687860D01*
X164947140Y-89569354D01*
X164854031Y-89430005D01*
X164789895Y-89275169D01*
X164757200Y-89110797D01*
X164757200Y-88943203D01*
X164789895Y-88778831D01*
X164854031Y-88623995D01*
X164947140Y-88484646D01*
X165065646Y-88366140D01*
X165204995Y-88273031D01*
X165359831Y-88208895D01*
X165524203Y-88176200D01*
X165691797Y-88176200D01*
X165856169Y-88208895D01*
G37*
G36*
X176016169Y-88208895D02*
G01*
X176171005Y-88273031D01*
X176310354Y-88366140D01*
X176428860Y-88484646D01*
X176521969Y-88623995D01*
X176586105Y-88778831D01*
X176618800Y-88943203D01*
X176618800Y-89110797D01*
X176586105Y-89275169D01*
X176521969Y-89430005D01*
X176428860Y-89569354D01*
X176310354Y-89687860D01*
X176171005Y-89780969D01*
X176016169Y-89845105D01*
X175851797Y-89877800D01*
X175684203Y-89877800D01*
X175519831Y-89845105D01*
X175364995Y-89780969D01*
X175225646Y-89687860D01*
X175107140Y-89569354D01*
X175014031Y-89430005D01*
X174949895Y-89275169D01*
X174917200Y-89110797D01*
X174917200Y-88943203D01*
X174949895Y-88778831D01*
X175014031Y-88623995D01*
X175107140Y-88484646D01*
X175225646Y-88366140D01*
X175364995Y-88273031D01*
X175519831Y-88208895D01*
X175684203Y-88176200D01*
X175851797Y-88176200D01*
X176016169Y-88208895D01*
G37*
G36*
X163316169Y-88208895D02*
G01*
X163471005Y-88273031D01*
X163610354Y-88366140D01*
X163728860Y-88484646D01*
X163821969Y-88623995D01*
X163886105Y-88778831D01*
X163918800Y-88943203D01*
X163918800Y-89110797D01*
X163886105Y-89275169D01*
X163821969Y-89430005D01*
X163728860Y-89569354D01*
X163610354Y-89687860D01*
X163471005Y-89780969D01*
X163316169Y-89845105D01*
X163151797Y-89877800D01*
X162984203Y-89877800D01*
X162819831Y-89845105D01*
X162664995Y-89780969D01*
X162525646Y-89687860D01*
X162407140Y-89569354D01*
X162314031Y-89430005D01*
X162249895Y-89275169D01*
X162217200Y-89110797D01*
X162217200Y-88943203D01*
X162249895Y-88778831D01*
X162314031Y-88623995D01*
X162407140Y-88484646D01*
X162525646Y-88366140D01*
X162664995Y-88273031D01*
X162819831Y-88208895D01*
X162984203Y-88176200D01*
X163151797Y-88176200D01*
X163316169Y-88208895D01*
G37*
G36*
X186993800Y-89150800D02*
G01*
X183592200Y-89150800D01*
X183592200Y-85549200D01*
X186993800Y-85549200D01*
X186993800Y-89150800D01*
G37*
G36*
X190931800Y-87553800D02*
G01*
X188417200Y-87553800D01*
X188417200Y-82372200D01*
X190931800Y-82372200D01*
X190931800Y-87553800D01*
G37*
G36*
X182168800Y-87553800D02*
G01*
X179654200Y-87553800D01*
X179654200Y-82372200D01*
X182168800Y-82372200D01*
X182168800Y-87553800D01*
G37*
G36*
X165729369Y-85538722D02*
G01*
X165729372Y-85538723D01*
X165814348Y-85564500D01*
X165892663Y-85606360D01*
X165961306Y-85662694D01*
X166017640Y-85731337D01*
X166059500Y-85809652D01*
X166082330Y-85884912D01*
X166085278Y-85894631D01*
X166091800Y-85960851D01*
X166091800Y-86505149D01*
X166085278Y-86571369D01*
X166085277Y-86571371D01*
X166085277Y-86571372D01*
X166059500Y-86656348D01*
X166017640Y-86734663D01*
X165961306Y-86803306D01*
X165892662Y-86859640D01*
X165814347Y-86901500D01*
X165739087Y-86924330D01*
X165729368Y-86927278D01*
X165641000Y-86935982D01*
X165552631Y-86927278D01*
X165542912Y-86924330D01*
X165467652Y-86901500D01*
X165389337Y-86859640D01*
X165320694Y-86803306D01*
X165264360Y-86734662D01*
X165222500Y-86656347D01*
X165196723Y-86571371D01*
X165196722Y-86571368D01*
X165190200Y-86505149D01*
X165190201Y-85960851D01*
X165196723Y-85894631D01*
X165199671Y-85884912D01*
X165222501Y-85809652D01*
X165264361Y-85731337D01*
X165320695Y-85662694D01*
X165389338Y-85606360D01*
X165467653Y-85564500D01*
X165552629Y-85538723D01*
X165552632Y-85538722D01*
X165641000Y-85530018D01*
X165729369Y-85538722D01*
G37*
G36*
X169479369Y-85538722D02*
G01*
X169479372Y-85538723D01*
X169564348Y-85564500D01*
X169642663Y-85606360D01*
X169711306Y-85662694D01*
X169767640Y-85731337D01*
X169809500Y-85809652D01*
X169832330Y-85884912D01*
X169835278Y-85894631D01*
X169841800Y-85960851D01*
X169841800Y-86505149D01*
X169835278Y-86571369D01*
X169835277Y-86571371D01*
X169835277Y-86571372D01*
X169809500Y-86656348D01*
X169767640Y-86734663D01*
X169711306Y-86803306D01*
X169642662Y-86859640D01*
X169564347Y-86901500D01*
X169489087Y-86924330D01*
X169479368Y-86927278D01*
X169391000Y-86935982D01*
X169302631Y-86927278D01*
X169292912Y-86924330D01*
X169217652Y-86901500D01*
X169139337Y-86859640D01*
X169070694Y-86803306D01*
X169014360Y-86734662D01*
X168972500Y-86656347D01*
X168946723Y-86571371D01*
X168946722Y-86571368D01*
X168940200Y-86505149D01*
X168940201Y-85960851D01*
X168946723Y-85894631D01*
X168949671Y-85884912D01*
X168972501Y-85809652D01*
X169014361Y-85731337D01*
X169070695Y-85662694D01*
X169139338Y-85606360D01*
X169217653Y-85564500D01*
X169302629Y-85538723D01*
X169302632Y-85538722D01*
X169391000Y-85530018D01*
X169479369Y-85538722D01*
G37*
G36*
X159479369Y-85538722D02*
G01*
X159479372Y-85538723D01*
X159564348Y-85564500D01*
X159642663Y-85606360D01*
X159711306Y-85662694D01*
X159767640Y-85731337D01*
X159809500Y-85809652D01*
X159832330Y-85884912D01*
X159835278Y-85894631D01*
X159841800Y-85960851D01*
X159841800Y-86505149D01*
X159835278Y-86571369D01*
X159835277Y-86571371D01*
X159835277Y-86571372D01*
X159809500Y-86656348D01*
X159767640Y-86734663D01*
X159711306Y-86803306D01*
X159642662Y-86859640D01*
X159564347Y-86901500D01*
X159489087Y-86924330D01*
X159479368Y-86927278D01*
X159391000Y-86935982D01*
X159302631Y-86927278D01*
X159292912Y-86924330D01*
X159217652Y-86901500D01*
X159139337Y-86859640D01*
X159070694Y-86803306D01*
X159014360Y-86734662D01*
X158972500Y-86656347D01*
X158946723Y-86571371D01*
X158946722Y-86571368D01*
X158940200Y-86505149D01*
X158940201Y-85960851D01*
X158946723Y-85894631D01*
X158949671Y-85884912D01*
X158972501Y-85809652D01*
X159014361Y-85731337D01*
X159070695Y-85662694D01*
X159139338Y-85606360D01*
X159217653Y-85564500D01*
X159302629Y-85538723D01*
X159302632Y-85538722D01*
X159391000Y-85530018D01*
X159479369Y-85538722D01*
G37*
G36*
X166979369Y-85538722D02*
G01*
X166979372Y-85538723D01*
X167064348Y-85564500D01*
X167142663Y-85606360D01*
X167211306Y-85662694D01*
X167267640Y-85731337D01*
X167309500Y-85809652D01*
X167332330Y-85884912D01*
X167335278Y-85894631D01*
X167341800Y-85960851D01*
X167341800Y-86505149D01*
X167335278Y-86571369D01*
X167335277Y-86571371D01*
X167335277Y-86571372D01*
X167309500Y-86656348D01*
X167267640Y-86734663D01*
X167211306Y-86803306D01*
X167142662Y-86859640D01*
X167064347Y-86901500D01*
X166989087Y-86924330D01*
X166979368Y-86927278D01*
X166891000Y-86935982D01*
X166802631Y-86927278D01*
X166792912Y-86924330D01*
X166717652Y-86901500D01*
X166639337Y-86859640D01*
X166570694Y-86803306D01*
X166514360Y-86734662D01*
X166472500Y-86656347D01*
X166446723Y-86571371D01*
X166446722Y-86571368D01*
X166440200Y-86505149D01*
X166440201Y-85960851D01*
X166446723Y-85894631D01*
X166449671Y-85884912D01*
X166472501Y-85809652D01*
X166514361Y-85731337D01*
X166570695Y-85662694D01*
X166639338Y-85606360D01*
X166717653Y-85564500D01*
X166802629Y-85538723D01*
X166802632Y-85538722D01*
X166891000Y-85530018D01*
X166979369Y-85538722D01*
G37*
G36*
X168229369Y-85538722D02*
G01*
X168229372Y-85538723D01*
X168314348Y-85564500D01*
X168392663Y-85606360D01*
X168461306Y-85662694D01*
X168517640Y-85731337D01*
X168559500Y-85809652D01*
X168582330Y-85884912D01*
X168585278Y-85894631D01*
X168591800Y-85960851D01*
X168591800Y-86505149D01*
X168585278Y-86571369D01*
X168585277Y-86571371D01*
X168585277Y-86571372D01*
X168559500Y-86656348D01*
X168517640Y-86734663D01*
X168461306Y-86803306D01*
X168392662Y-86859640D01*
X168314347Y-86901500D01*
X168239087Y-86924330D01*
X168229368Y-86927278D01*
X168141000Y-86935982D01*
X168052631Y-86927278D01*
X168042912Y-86924330D01*
X167967652Y-86901500D01*
X167889337Y-86859640D01*
X167820694Y-86803306D01*
X167764360Y-86734662D01*
X167722500Y-86656347D01*
X167696723Y-86571371D01*
X167696722Y-86571368D01*
X167690200Y-86505149D01*
X167690201Y-85960851D01*
X167696723Y-85894631D01*
X167699671Y-85884912D01*
X167722501Y-85809652D01*
X167764361Y-85731337D01*
X167820695Y-85662694D01*
X167889338Y-85606360D01*
X167967653Y-85564500D01*
X168052629Y-85538723D01*
X168052632Y-85538722D01*
X168141000Y-85530018D01*
X168229369Y-85538722D01*
G37*
G36*
X164479369Y-85538722D02*
G01*
X164479372Y-85538723D01*
X164564348Y-85564500D01*
X164642663Y-85606360D01*
X164711306Y-85662694D01*
X164767640Y-85731337D01*
X164809500Y-85809652D01*
X164832330Y-85884912D01*
X164835278Y-85894631D01*
X164841800Y-85960851D01*
X164841800Y-86505149D01*
X164835278Y-86571369D01*
X164835277Y-86571371D01*
X164835277Y-86571372D01*
X164809500Y-86656348D01*
X164767640Y-86734663D01*
X164711306Y-86803306D01*
X164642662Y-86859640D01*
X164564347Y-86901500D01*
X164489087Y-86924330D01*
X164479368Y-86927278D01*
X164391000Y-86935982D01*
X164302631Y-86927278D01*
X164292912Y-86924330D01*
X164217652Y-86901500D01*
X164139337Y-86859640D01*
X164070694Y-86803306D01*
X164014360Y-86734662D01*
X163972500Y-86656347D01*
X163946723Y-86571371D01*
X163946722Y-86571368D01*
X163940200Y-86505149D01*
X163940201Y-85960851D01*
X163946723Y-85894631D01*
X163949671Y-85884912D01*
X163972501Y-85809652D01*
X164014361Y-85731337D01*
X164070695Y-85662694D01*
X164139338Y-85606360D01*
X164217653Y-85564500D01*
X164302629Y-85538723D01*
X164302632Y-85538722D01*
X164391000Y-85530018D01*
X164479369Y-85538722D01*
G37*
G36*
X174479369Y-85538722D02*
G01*
X174479372Y-85538723D01*
X174564348Y-85564500D01*
X174642663Y-85606360D01*
X174711306Y-85662694D01*
X174767640Y-85731337D01*
X174809500Y-85809652D01*
X174832330Y-85884912D01*
X174835278Y-85894631D01*
X174841800Y-85960851D01*
X174841800Y-86505149D01*
X174835278Y-86571369D01*
X174835277Y-86571371D01*
X174835277Y-86571372D01*
X174809500Y-86656348D01*
X174767640Y-86734663D01*
X174711306Y-86803306D01*
X174642662Y-86859640D01*
X174564347Y-86901500D01*
X174489087Y-86924330D01*
X174479368Y-86927278D01*
X174391000Y-86935982D01*
X174302631Y-86927278D01*
X174292912Y-86924330D01*
X174217652Y-86901500D01*
X174139337Y-86859640D01*
X174070694Y-86803306D01*
X174014360Y-86734662D01*
X173972500Y-86656347D01*
X173946723Y-86571371D01*
X173946722Y-86571368D01*
X173940200Y-86505149D01*
X173940201Y-85960851D01*
X173946723Y-85894631D01*
X173949671Y-85884912D01*
X173972501Y-85809652D01*
X174014361Y-85731337D01*
X174070695Y-85662694D01*
X174139338Y-85606360D01*
X174217653Y-85564500D01*
X174302629Y-85538723D01*
X174302632Y-85538722D01*
X174391000Y-85530018D01*
X174479369Y-85538722D01*
G37*
G36*
X173229369Y-85538722D02*
G01*
X173229372Y-85538723D01*
X173314348Y-85564500D01*
X173392663Y-85606360D01*
X173461306Y-85662694D01*
X173517640Y-85731337D01*
X173559500Y-85809652D01*
X173582330Y-85884912D01*
X173585278Y-85894631D01*
X173591800Y-85960851D01*
X173591800Y-86505149D01*
X173585278Y-86571369D01*
X173585277Y-86571371D01*
X173585277Y-86571372D01*
X173559500Y-86656348D01*
X173517640Y-86734663D01*
X173461306Y-86803306D01*
X173392662Y-86859640D01*
X173314347Y-86901500D01*
X173239087Y-86924330D01*
X173229368Y-86927278D01*
X173141000Y-86935982D01*
X173052631Y-86927278D01*
X173042912Y-86924330D01*
X172967652Y-86901500D01*
X172889337Y-86859640D01*
X172820694Y-86803306D01*
X172764360Y-86734662D01*
X172722500Y-86656347D01*
X172696723Y-86571371D01*
X172696722Y-86571368D01*
X172690200Y-86505149D01*
X172690201Y-85960851D01*
X172696723Y-85894631D01*
X172699671Y-85884912D01*
X172722501Y-85809652D01*
X172764361Y-85731337D01*
X172820695Y-85662694D01*
X172889338Y-85606360D01*
X172967653Y-85564500D01*
X173052629Y-85538723D01*
X173052632Y-85538722D01*
X173141000Y-85530018D01*
X173229369Y-85538722D01*
G37*
G36*
X171979369Y-85538722D02*
G01*
X171979372Y-85538723D01*
X172064348Y-85564500D01*
X172142663Y-85606360D01*
X172211306Y-85662694D01*
X172267640Y-85731337D01*
X172309500Y-85809652D01*
X172332330Y-85884912D01*
X172335278Y-85894631D01*
X172341800Y-85960851D01*
X172341800Y-86505149D01*
X172335278Y-86571369D01*
X172335277Y-86571371D01*
X172335277Y-86571372D01*
X172309500Y-86656348D01*
X172267640Y-86734663D01*
X172211306Y-86803306D01*
X172142662Y-86859640D01*
X172064347Y-86901500D01*
X171989087Y-86924330D01*
X171979368Y-86927278D01*
X171891000Y-86935982D01*
X171802631Y-86927278D01*
X171792912Y-86924330D01*
X171717652Y-86901500D01*
X171639337Y-86859640D01*
X171570694Y-86803306D01*
X171514360Y-86734662D01*
X171472500Y-86656347D01*
X171446723Y-86571371D01*
X171446722Y-86571368D01*
X171440200Y-86505149D01*
X171440201Y-85960851D01*
X171446723Y-85894631D01*
X171449671Y-85884912D01*
X171472501Y-85809652D01*
X171514361Y-85731337D01*
X171570695Y-85662694D01*
X171639338Y-85606360D01*
X171717653Y-85564500D01*
X171802629Y-85538723D01*
X171802632Y-85538722D01*
X171891000Y-85530018D01*
X171979369Y-85538722D01*
G37*
G36*
X170729369Y-85538722D02*
G01*
X170729372Y-85538723D01*
X170814348Y-85564500D01*
X170892663Y-85606360D01*
X170961306Y-85662694D01*
X171017640Y-85731337D01*
X171059500Y-85809652D01*
X171082330Y-85884912D01*
X171085278Y-85894631D01*
X171091800Y-85960851D01*
X171091800Y-86505149D01*
X171085278Y-86571369D01*
X171085277Y-86571371D01*
X171085277Y-86571372D01*
X171059500Y-86656348D01*
X171017640Y-86734663D01*
X170961306Y-86803306D01*
X170892662Y-86859640D01*
X170814347Y-86901500D01*
X170739087Y-86924330D01*
X170729368Y-86927278D01*
X170641000Y-86935982D01*
X170552631Y-86927278D01*
X170542912Y-86924330D01*
X170467652Y-86901500D01*
X170389337Y-86859640D01*
X170320694Y-86803306D01*
X170264360Y-86734662D01*
X170222500Y-86656347D01*
X170196723Y-86571371D01*
X170196722Y-86571368D01*
X170190200Y-86505149D01*
X170190201Y-85960851D01*
X170196723Y-85894631D01*
X170199671Y-85884912D01*
X170222501Y-85809652D01*
X170264361Y-85731337D01*
X170320695Y-85662694D01*
X170389338Y-85606360D01*
X170467653Y-85564500D01*
X170552629Y-85538723D01*
X170552632Y-85538722D01*
X170641000Y-85530018D01*
X170729369Y-85538722D01*
G37*
G36*
X161979369Y-85538722D02*
G01*
X161979372Y-85538723D01*
X162064348Y-85564500D01*
X162142663Y-85606360D01*
X162211306Y-85662694D01*
X162267640Y-85731337D01*
X162309500Y-85809652D01*
X162332330Y-85884912D01*
X162335278Y-85894631D01*
X162341800Y-85960851D01*
X162341800Y-86505149D01*
X162335278Y-86571369D01*
X162335277Y-86571371D01*
X162335277Y-86571372D01*
X162309500Y-86656348D01*
X162267640Y-86734663D01*
X162211306Y-86803306D01*
X162142662Y-86859640D01*
X162064347Y-86901500D01*
X161989087Y-86924330D01*
X161979368Y-86927278D01*
X161891000Y-86935982D01*
X161802631Y-86927278D01*
X161792912Y-86924330D01*
X161717652Y-86901500D01*
X161639337Y-86859640D01*
X161570694Y-86803306D01*
X161514360Y-86734662D01*
X161472500Y-86656347D01*
X161446723Y-86571371D01*
X161446722Y-86571368D01*
X161440200Y-86505149D01*
X161440201Y-85960851D01*
X161446723Y-85894631D01*
X161449671Y-85884912D01*
X161472501Y-85809652D01*
X161514361Y-85731337D01*
X161570695Y-85662694D01*
X161639338Y-85606360D01*
X161717653Y-85564500D01*
X161802629Y-85538723D01*
X161802632Y-85538722D01*
X161891000Y-85530018D01*
X161979369Y-85538722D01*
G37*
G36*
X160729369Y-85538722D02*
G01*
X160729372Y-85538723D01*
X160814348Y-85564500D01*
X160892663Y-85606360D01*
X160961306Y-85662694D01*
X161017640Y-85731337D01*
X161059500Y-85809652D01*
X161082330Y-85884912D01*
X161085278Y-85894631D01*
X161091800Y-85960851D01*
X161091800Y-86505149D01*
X161085278Y-86571369D01*
X161085277Y-86571371D01*
X161085277Y-86571372D01*
X161059500Y-86656348D01*
X161017640Y-86734663D01*
X160961306Y-86803306D01*
X160892662Y-86859640D01*
X160814347Y-86901500D01*
X160739087Y-86924330D01*
X160729368Y-86927278D01*
X160641000Y-86935982D01*
X160552631Y-86927278D01*
X160542912Y-86924330D01*
X160467652Y-86901500D01*
X160389337Y-86859640D01*
X160320694Y-86803306D01*
X160264360Y-86734662D01*
X160222500Y-86656347D01*
X160196723Y-86571371D01*
X160196722Y-86571368D01*
X160190200Y-86505149D01*
X160190201Y-85960851D01*
X160196723Y-85894631D01*
X160199671Y-85884912D01*
X160222501Y-85809652D01*
X160264361Y-85731337D01*
X160320695Y-85662694D01*
X160389338Y-85606360D01*
X160467653Y-85564500D01*
X160552629Y-85538723D01*
X160552632Y-85538722D01*
X160641000Y-85530018D01*
X160729369Y-85538722D01*
G37*
G36*
X163229369Y-85538722D02*
G01*
X163229372Y-85538723D01*
X163314348Y-85564500D01*
X163392663Y-85606360D01*
X163461306Y-85662694D01*
X163517640Y-85731337D01*
X163559500Y-85809652D01*
X163582330Y-85884912D01*
X163585278Y-85894631D01*
X163591800Y-85960851D01*
X163591800Y-86505149D01*
X163585278Y-86571369D01*
X163585277Y-86571371D01*
X163585277Y-86571372D01*
X163559500Y-86656348D01*
X163517640Y-86734663D01*
X163461306Y-86803306D01*
X163392662Y-86859640D01*
X163314347Y-86901500D01*
X163239087Y-86924330D01*
X163229368Y-86927278D01*
X163141000Y-86935982D01*
X163052631Y-86927278D01*
X163042912Y-86924330D01*
X162967652Y-86901500D01*
X162889337Y-86859640D01*
X162820694Y-86803306D01*
X162764360Y-86734662D01*
X162722500Y-86656347D01*
X162696723Y-86571371D01*
X162696722Y-86571368D01*
X162690200Y-86505149D01*
X162690201Y-85960851D01*
X162696723Y-85894631D01*
X162699671Y-85884912D01*
X162722501Y-85809652D01*
X162764361Y-85731337D01*
X162820695Y-85662694D01*
X162889338Y-85606360D01*
X162967653Y-85564500D01*
X163052629Y-85538723D01*
X163052632Y-85538722D01*
X163141000Y-85530018D01*
X163229369Y-85538722D01*
G37*
G36*
X175930766Y-85536283D02*
G01*
X175968242Y-85547651D01*
X176002778Y-85566111D01*
X176033048Y-85590952D01*
X176057889Y-85621222D01*
X176076349Y-85655758D01*
X176087717Y-85693234D01*
X176091800Y-85734691D01*
X176091800Y-86731309D01*
X176087717Y-86772766D01*
X176076349Y-86810242D01*
X176057889Y-86844778D01*
X176033048Y-86875048D01*
X176002778Y-86899889D01*
X175968242Y-86918349D01*
X175930766Y-86929717D01*
X175889309Y-86933800D01*
X175392691Y-86933800D01*
X175351234Y-86929717D01*
X175313758Y-86918349D01*
X175279222Y-86899889D01*
X175248952Y-86875048D01*
X175224111Y-86844778D01*
X175205651Y-86810242D01*
X175194283Y-86772766D01*
X175190200Y-86731309D01*
X175190200Y-85734691D01*
X175194283Y-85693234D01*
X175205651Y-85655758D01*
X175224111Y-85621222D01*
X175248952Y-85590952D01*
X175279222Y-85566111D01*
X175313758Y-85547651D01*
X175351234Y-85536283D01*
X175392691Y-85532200D01*
X175889309Y-85532200D01*
X175930766Y-85536283D01*
G37*
M02*
